<svg xmlns="http://www.w3.org/2000/svg" viewBox="0 0 524.4 320.4"><title>malcol-cmyk-invert</title><g id="20600712-20ba-40f8-915c-0fae53f3ae48" data-name="Layer 1"><path d="M152.4,298a21.9,21.9,0,0,0-1.7-4.1,14.6,14.6,0,0,0-2.6-3.3,11.1,11.1,0,0,0-3.4-2.2,11.8,11.8,0,0,0-4.3-.7,10.9,10.9,0,0,0-5.3,1.2,9.8,9.8,0,0,0-3.5,3.2,14.8,14.8,0,0,0-2,4.8,26,26,0,0,0-.6,5.6,18.5,18.5,0,0,0,.8,5.8,13.8,13.8,0,0,0,2.3,4.7,11.6,11.6,0,0,0,4,3.3,12,12,0,0,0,5.5,1.2,13.7,13.7,0,0,0,8-2.3,24.7,24.7,0,0,0,6-6.4l1.2,1a33.1,33.1,0,0,1-3.4,4.5,16.5,16.5,0,0,1-3.7,3.3,17.2,17.2,0,0,1-4.3,2.1,21.9,21.9,0,0,1-5.3.7,17,17,0,0,1-6.4-1.3,15.7,15.7,0,0,1-5.2-3.6,17,17,0,0,1-3.6-5.4,19.5,19.5,0,0,1,0-14,17,17,0,0,1,3.6-5.4,15.7,15.7,0,0,1,5.2-3.6,17,17,0,0,1,6.4-1.3,17.9,17.9,0,0,1,3.4.3l3.1.5,2.9.5,2.7.2a22.6,22.6,0,0,0,.1,2.5c0,.9.1,1.9.2,2.9l.3,2.8c.1,1,.2,1.8.3,2.5Z" transform="translate(0 0)" style="fill:#749688"/><path d="M165.3,295.8a17.8,17.8,0,0,1,3.9-5.4,18.2,18.2,0,0,1,5.9-3.4,22.2,22.2,0,0,1,14.4,0,16.8,16.8,0,0,1,5.8,3.4,16.5,16.5,0,0,1,4,5.4,18.5,18.5,0,0,1,0,14.6,16.5,16.5,0,0,1-4,5.4,16.8,16.8,0,0,1-5.8,3.4,22.2,22.2,0,0,1-14.4,0,18.2,18.2,0,0,1-5.9-3.4,17.8,17.8,0,0,1-3.9-5.4,18.5,18.5,0,0,1,0-14.6ZM170,309a14.4,14.4,0,0,0,2.6,4.9,13.6,13.6,0,0,0,4.1,3.4,12.7,12.7,0,0,0,11.2,0,13.6,13.6,0,0,0,4.1-3.4,16.4,16.4,0,0,0,2.6-4.9,19.6,19.6,0,0,0,.9-5.9,18.5,18.5,0,0,0-.9-5.8,15.8,15.8,0,0,0-2.6-5,13.6,13.6,0,0,0-4.1-3.4,13.7,13.7,0,0,0-11.2,0,13.6,13.6,0,0,0-4.1,3.4,14,14,0,0,0-2.6,5,18.5,18.5,0,0,0-.9,5.8A19.6,19.6,0,0,0,170,309Z" transform="translate(0 0)" style="fill:#749688"/><path d="M226.2,287.3a20.5,20.5,0,0,0-3.8.8,3.2,3.2,0,0,0-1.9,1.1,3,3,0,0,0-.8,1.7,16.9,16.9,0,0,0-.2,2.5v24l2.7.4a10.6,10.6,0,0,0,2.5.2,20.1,20.1,0,0,0,5.2-.6,13.2,13.2,0,0,0,4-1.8,15,15,0,0,0,3.2-3,32,32,0,0,0,3-4.3h.7L237,319.6l-3.7-.2H212.5l-2.5.2V319a13.3,13.3,0,0,0,2.6-.5,3.2,3.2,0,0,0,1.5-.9,2.1,2.1,0,0,0,.7-1.3,4.7,4.7,0,0,0,.2-1.7V294.8c0-1.4,0-2.6-.1-3.5a5.8,5.8,0,0,0-.6-2.2,3.7,3.7,0,0,0-1.5-1.3,14.3,14.3,0,0,0-2.8-.5v-.7l3.8.2H222l4.2-.2Z" transform="translate(0 0)" style="fill:#749688"/><path d="M263.6,287.3a19.2,19.2,0,0,0-3.7.8,3.5,3.5,0,0,0-2,1.1,3,3,0,0,0-.8,1.7,18.5,18.5,0,0,0-.1,2.5v24l2.6.4a11.4,11.4,0,0,0,2.6.2,18.8,18.8,0,0,0,5.1-.6,13.2,13.2,0,0,0,4-1.8,15.5,15.5,0,0,0,3.3-3,45.4,45.4,0,0,0,2.9-4.3h.8l-3.9,11.3-3.6-.2H249.9l-2.5.2V319a12,12,0,0,0,2.6-.5,3.5,3.5,0,0,0,1.6-.9,2.7,2.7,0,0,0,.7-1.3,8.8,8.8,0,0,0,.2-1.7V294.8a31.6,31.6,0,0,0-.2-3.5,4.4,4.4,0,0,0-.6-2.2,2.8,2.8,0,0,0-1.5-1.3,14.3,14.3,0,0,0-2.8-.5v-.7l3.9.2h8.1l4.2-.2Z" transform="translate(0 0)" style="fill:#749688"/><path d="M294.5,317.4l2.5.4a16.2,16.2,0,0,0,3,.2,22.6,22.6,0,0,0,5.4-.5,12.9,12.9,0,0,0,4.4-1.6,15.7,15.7,0,0,0,3.7-2.8,30.1,30.1,0,0,0,3.6-4.1l.5.5-4.5,10.1-1.8-.2H287.8l-2.9.2V319a9,9,0,0,0,2.8-.6,2.3,2.3,0,0,0,1.5-1.2,3.8,3.8,0,0,0,.6-2.2,33.2,33.2,0,0,0,.2-3.5V294.8a31.6,31.6,0,0,0-.2-3.5,3.6,3.6,0,0,0-.6-2.2,2.8,2.8,0,0,0-1.5-1.3,15.5,15.5,0,0,0-2.9-.5v-.7h21l7.1-.2a17.7,17.7,0,0,0-.1,2.2v2a15.5,15.5,0,0,0,.1,2.2c.1.8.1,1.6.2,2.5l-.6.2a14.2,14.2,0,0,0-1.8-3.9,8.2,8.2,0,0,0-2.5-2.4,10.4,10.4,0,0,0-3.1-1.1,20.2,20.2,0,0,0-3.6-.3l-7,.3v12.5h3.8a9.7,9.7,0,0,0,5.5-1.4c1.4-.9,2.2-2.6,2.5-5.1h.6v3.7c-.1,1.2-.1,2.3-.1,3.5s0,2.4.1,3.6v3.6h-.6a17,17,0,0,0-1.1-3.4,4.1,4.1,0,0,0-1.6-2,6.3,6.3,0,0,0-2.5-1l-3.4-.2h-3.2Z" transform="translate(0 0)" style="fill:#749688"/><path d="M354.5,297.3l-2-3.7a19.6,19.6,0,0,0-2.5-3.2,12.1,12.1,0,0,0-3.2-2.2,10.3,10.3,0,0,0-9.4.5,14.8,14.8,0,0,0-3.8,3.7,21,21,0,0,0-2.4,5,22.3,22.3,0,0,0-.8,5.6,23.5,23.5,0,0,0,.8,6,17.2,17.2,0,0,0,2.4,4.9,11.1,11.1,0,0,0,3.8,3.4,10.7,10.7,0,0,0,5.1,1.3,25,25,0,0,0,4.7-.5,11.8,11.8,0,0,0,4.3-1.9v-6.5c0-2.2-1.7-3.4-5.2-3.5v-.7l3.5.2h11.1v.6l-2,.2a5.2,5.2,0,0,0-1.5.7,2.9,2.9,0,0,0-1,1.2,4,4,0,0,0-.4,2v7l-6.8,2.1a25.7,25.7,0,0,1-6.5,1,18.4,18.4,0,0,1-6.6-1.2,16.4,16.4,0,0,1-5.7-3.3,16.5,16.5,0,0,1-4-5.4,17.3,17.3,0,0,1-.1-14.3,18.4,18.4,0,0,1,4.1-5.4,19,19,0,0,1,5.7-3.6,16.6,16.6,0,0,1,6.6-1.4l3.7.2,3,.4,2.4.6,2.1.6c0,.5.1,1.2.2,2.1l.3,2.8a25.1,25.1,0,0,0,.4,2.7q.1,1.4.3,2.1Z" transform="translate(0 0)" style="fill:#749688"/><path d="M377.7,317.4l2.5.4a17.2,17.2,0,0,0,3.1.2,22.6,22.6,0,0,0,5.4-.5,12.3,12.3,0,0,0,4.3-1.6,16.1,16.1,0,0,0,3.8-2.8,38.9,38.9,0,0,0,3.5-4.1l.6.5-4.6,10.1-1.8-.2H371.1l-2.9.2V319a9,9,0,0,0,2.8-.6,2.9,2.9,0,0,0,1.5-1.2,6.4,6.4,0,0,0,.6-2.2c.1-1,.1-2.1.1-3.5V294.8c0-1.4,0-2.6-.1-3.5a5.8,5.8,0,0,0-.6-2.2,3.4,3.4,0,0,0-1.6-1.3,14.3,14.3,0,0,0-2.8-.5v-.7H389l7.2-.2a17.7,17.7,0,0,0-.1,2.2v2a15.5,15.5,0,0,0,.1,2.2,22.9,22.9,0,0,0,.2,2.5l-.7.2a11.8,11.8,0,0,0-1.7-3.9,9.4,9.4,0,0,0-2.5-2.4,11,11,0,0,0-3.2-1.1,20.2,20.2,0,0,0-3.6-.3l-7,.3v12.5h3.9a9.9,9.9,0,0,0,5.5-1.4q1.9-1.4,2.4-5.1h.7c0,1.2-.1,2.5-.1,3.7s-.1,2.3-.1,3.5.1,2.4.1,3.6.1,2.4.1,3.6h-.7a17.5,17.5,0,0,0-1-3.4,4.9,4.9,0,0,0-1.7-2,6.4,6.4,0,0,0-2.4-1l-3.5-.2h-3.2Z" transform="translate(0 0)" style="fill:#749688"/><path d="M71.5,181.9l8.5.3H95.9l7.4-.3v1.4a29.7,29.7,0,0,0-4.5,1,10.2,10.2,0,0,0-3.6,1.8,7.6,7.6,0,0,0-2.3,3,10.5,10.5,0,0,0-.8,4.6,46.7,46.7,0,0,0,.4,5.7c.2,2.5.6,5.3,1.1,8.4s1,6.4,1.6,9.9L97,228.4c.6,3.5,1.3,6.9,1.9,10.1s1.3,6,1.9,8.4A33.7,33.7,0,0,0,102,251a7.9,7.9,0,0,0,2,3.1,10.2,10.2,0,0,0,3.7,2.3,26.6,26.6,0,0,0,6.2,1.3v1.4l-9.3-.3H86.5l-8.7.3v-1.4a35.5,35.5,0,0,0,4.7-.9,11.3,11.3,0,0,0,3.9-1.5,7.6,7.6,0,0,0,2.6-3,10.7,10.7,0,0,0,1-4.8c0-.9-.1-2.2-.2-3.8a30.7,30.7,0,0,0-.7-5.4l-8-47.3h-.3c-2.2,5.6-4.5,11.2-6.9,16.7l-7.2,16.7c-2.3,5.5-4.6,11.2-6.9,16.9s-4.2,11.5-6,17.4h-.2a356.1,356.1,0,0,0-12.8-35.1C36,212.3,30.9,201,25.6,189.8h-.3c-.6,4.3-1.2,9.1-1.8,14.3s-1.2,10.4-1.7,15.4-1,9.5-1.3,13.6-.4,7.2-.4,9.2a33.3,33.3,0,0,0,.5,6.7,9.6,9.6,0,0,0,2,4.7,9.4,9.4,0,0,0,4.2,2.8,21.4,21.4,0,0,0,6.9,1.2v1.4l-9.6-.3H7.2l-7.2.3v-1.4a21.1,21.1,0,0,0,4.9-.9,15.4,15.4,0,0,0,4.3-2,15.8,15.8,0,0,0,3.4-2.9,8.8,8.8,0,0,0,1.7-4c.5-2.8.9-5.7,1.3-8.7l1.2-9,5.6-41.7a18.3,18.3,0,0,0-5.8-3.3,36.6,36.6,0,0,0-6.8-1.9v-1.4l10,.3H36.9l7.3-.3v1.4a13.3,13.3,0,0,0-4.2,1.9,5.1,5.1,0,0,0-1.8,4.3,12.7,12.7,0,0,0,.6,3.9q.6,1.8,1.5,3.9L57,237.9c3.9-8.3,7.7-16.6,11.3-24.9s6.9-16.9,9.9-25.7a11.8,11.8,0,0,0-3-2.5,23.9,23.9,0,0,0-3.7-1.5Z" transform="translate(0 0)" style="fill:#fff"/><path d="M134.7,230.1,128.1,248a10.9,10.9,0,0,1-.5,1.4,2.8,2.8,0,0,0-.3,1.3,4.9,4.9,0,0,0,1.1,3.1,8.5,8.5,0,0,0,2.5,2.1,17.3,17.3,0,0,0,3.1,1.4l2.6.7v1.1l-5.9-.3H118.9l-6,.3V258a14.9,14.9,0,0,0,5.1-2.2,13.7,13.7,0,0,0,3.4-3.4,26.3,26.3,0,0,0,2.4-4.4l2.1-4.9L143,201a11.2,11.2,0,0,0,.5-1.3,2.6,2.6,0,0,0,.3-1.1,3.7,3.7,0,0,0-.4-1.5,7.5,7.5,0,0,0-.8-1.8A21,21,0,0,0,147,194l4.2-1.7L171.8,249a14,14,0,0,0,3.9,6.1c1.6,1.5,4.1,2.4,7.3,2.8v1.2l-7.8-.3H152.9v-1.2a17.5,17.5,0,0,0,7-2.1,4.9,4.9,0,0,0,2.8-4.4,3.2,3.2,0,0,0-.4-1.6,8.8,8.8,0,0,1-.5-1.5l-6.4-18.2ZM145.4,202l-9.7,25.1h18.6Z" transform="translate(0 0)" style="fill:#fff"/><path d="M218.6,195.2a51.5,51.5,0,0,0-7.5,1.5,10.3,10.3,0,0,0-3.9,2.2,6.9,6.9,0,0,0-1.5,3.5,34.3,34.3,0,0,0-.3,5v47.5l5.2.9a29.2,29.2,0,0,0,5.1.4,38.6,38.6,0,0,0,10.2-1.2,27,27,0,0,0,7.9-3.6,25.7,25.7,0,0,0,6.4-6A93.1,93.1,0,0,0,246,237h1.5l-7.6,22.1-7.2-.3H191.4l-4.9.3v-1.2a20.8,20.8,0,0,0,5.2-1,8.7,8.7,0,0,0,3-1.7,4.7,4.7,0,0,0,1.4-2.6,16.7,16.7,0,0,0,.4-3.4V210a67.3,67.3,0,0,0-.3-6.9,12.8,12.8,0,0,0-1.2-4.4,6,6,0,0,0-3-2.4,17.7,17.7,0,0,0-5.5-1.1V194l7.6.3h16.1l8.4-.3Z" transform="translate(0 0)" style="fill:#fff"/><path d="M234.7,194l6.9.3h14.9l7.9-.3v1.2l-2.9.5a13.2,13.2,0,0,0-3,.9,5.8,5.8,0,0,0-2.3,1.8,4.4,4.4,0,0,0-.9,2.9c0,1.3,1,4.3,2.9,8.9l15.6,37.7,12.8-30.4a95.9,95.9,0,0,0,3.7-10.1,22.4,22.4,0,0,0,1.3-6.3,5.4,5.4,0,0,0-.7-2.7,5.2,5.2,0,0,0-1.9-1.7l-2.6-1-2.9-.5V194l6.6.3h12.1l5.3-.3v1.2a10.4,10.4,0,0,0-5.8,2.3,16.1,16.1,0,0,0-4.1,4.5,34.9,34.9,0,0,0-2.9,5.8q-1.2,3-2.4,5.7l-20.6,46.3h-2.2l-23.1-54.3a22.6,22.6,0,0,0-4.4-7.1,10.4,10.4,0,0,0-7.3-3.2Z" transform="translate(0 0)" style="fill:#fff"/><path d="M328.5,254.9a32.7,32.7,0,0,0,5,.8,45.4,45.4,0,0,0,6,.5,49.3,49.3,0,0,0,10.7-1,30.5,30.5,0,0,0,8.6-3.2,34.7,34.7,0,0,0,7.4-5.5,85.3,85.3,0,0,0,7-8.1l1.1.9-9,19.8-3.5-.3H315.3l-5.7.3v-1.2a17.1,17.1,0,0,0,5.5-1.1,5.3,5.3,0,0,0,3-2.4,10.9,10.9,0,0,0,1.3-4.4c.1-1.9.2-4.2.2-6.9V210c0-2.7-.1-5-.2-6.9a10.9,10.9,0,0,0-1.3-4.4,5.5,5.5,0,0,0-3.1-2.4,17.8,17.8,0,0,0-5.6-1.1V194h41.5L365,194c-.1,1.5-.2,2.9-.2,4.2v3.9c0,1.5.1,3,.2,4.5s.3,3.1.4,4.9l-1.3.4a25.7,25.7,0,0,0-3.4-7.8,15.9,15.9,0,0,0-5-4.7,17.7,17.7,0,0,0-6.2-2.3,40,40,0,0,0-7.1-.6c-4.5,0-9.2.2-13.9.6v24.8h7.7c4.5,0,8.2-.9,10.8-2.7s4.3-5.1,4.9-10h1.3c0,2.4-.1,4.8-.1,7.2s-.1,4.7-.1,7,0,4.7.1,7.1.1,4.8.1,7.1h-1.3a33.3,33.3,0,0,0-2.1-6.7,9.7,9.7,0,0,0-3.3-4.1,11.5,11.5,0,0,0-4.8-1.8,34.3,34.3,0,0,0-6.8-.5h-6.4Z" transform="translate(0 0)" style="fill:#fff"/><path d="M446.7,258.7H428.9a169.6,169.6,0,0,1-11.5-13.9,104.4,104.4,0,0,1-9.5-15.2l-2.5-.2-3.2-.4-3.2-.7-2.5-.6v15.4a64.7,64.7,0,0,0,.3,6.9,9.5,9.5,0,0,0,1.3,4.4,5.8,5.8,0,0,0,3.1,2.4,19.1,19.1,0,0,0,5.7,1.1v1.2l-7.5-.3H384.6l-7.1.3v-1.2a17.1,17.1,0,0,0,5.5-1.1,6,6,0,0,0,3-2.4,9.5,9.5,0,0,0,1.3-4.4,67.3,67.3,0,0,0,.3-6.9V210a67.3,67.3,0,0,0-.3-6.9,9.5,9.5,0,0,0-1.3-4.4,6,6,0,0,0-3-2.4,17.1,17.1,0,0,0-5.5-1.1V194l6.3.3h6.4l3.4-.2,4.4-.3,4.8-.4H407a38.3,38.3,0,0,1,8.8,1,27.4,27.4,0,0,1,8,3.5,18.8,18.8,0,0,1,5.8,6.1,16.1,16.1,0,0,1,2.3,8.7,15.1,15.1,0,0,1-1.2,6.1,16.2,16.2,0,0,1-3.4,4.7,18.6,18.6,0,0,1-4.8,3.3,28.1,28.1,0,0,1-6,1.9c1.4,2.3,3.2,5.1,5.3,8.3a102.6,102.6,0,0,0,7.2,9.1,55.2,55.2,0,0,0,8.4,7.7,20.2,20.2,0,0,0,9.3,3.7Zm-50.2-34.4a34.5,34.5,0,0,0,4.6,1.2,25,25,0,0,0,4.7.5q7.6,0,12-3.6c2.8-2.4,4.2-6.2,4.2-11.6a13.8,13.8,0,0,0-1.2-5.9,14.1,14.1,0,0,0-3.4-4.6,15.9,15.9,0,0,0-5-3,16.3,16.3,0,0,0-5.9-1l-4.9.2a19.5,19.5,0,0,0-4.7.9l-.3,9.6c0,3.3-.1,6.8-.1,10.6Z" transform="translate(0 0)" style="fill:#fff"/><path d="M446.8,194l6.5.3h11.6l4.3-.3c.8,1.1,2.2,3,4.2,5.4l6.8,8.2,8.2,10,8.4,10.2,7.5,9.3,5.4,7.1h.2v-5.9c0-1.9.1-3.9.1-5.9V220.9c0-4.2-.2-7.9-.5-11a26.3,26.3,0,0,0-1.8-7.9,10.7,10.7,0,0,0-3.7-4.8,12.4,12.4,0,0,0-6.4-2V194l7,.3H518l6.4-.3v1.2a18,18,0,0,0-5.2,1.3,9.3,9.3,0,0,0-3.4,2.3,8,8,0,0,0-1.7,3.6,18.8,18.8,0,0,0-.6,5.1V260h-3.6c-3.7-5.7-7.5-11.3-11.5-16.7s-8.1-10.4-12.1-15.2-7.9-9.3-11.6-13.4l-10.1-11.1c-.1,1.7-.1,3.4-.1,5.1s-.1,3.3-.1,5v17.4q0,8.7.3,13.8c.3,3.5.8,6.1,1.7,7.9a7.2,7.2,0,0,0,4,3.7,33.7,33.7,0,0,0,7.3,1.4v1.2l-9.8-.3H452.4l-5.6.3v-1.2l5.9-.9a11,11,0,0,0,4.1-1.5,6.8,6.8,0,0,0,2.5-3,13.2,13.2,0,0,0,.9-5.4l1.2-45.4a23.9,23.9,0,0,0-6.9-4,53.2,53.2,0,0,0-7.7-2.5Z" transform="translate(0 0)" style="fill:#fff"/></g><g id="75596ef1-41bc-4e72-b72a-fece21a51ca6" data-name="Layer 3"><path d="M302.8,78.4l-.7-.4c1.9-1,3.8-1.7,5.4-3.3-1.6-4.6-6.8-1.4-10.4-2.7,0-.5.5-.8.8-1.1,2.8-2.3,8-.7,9.3-4.9-1.8-2.2,2.1-3.4,1.9-5.5s-3.5-.2-5.2-.3a1.4,1.4,0,0,0-.5-.9,3.8,3.8,0,0,0-1.7-1,4.7,4.7,0,0,0,1.1-5.2l-2.2.8c.1-2.3-2-6.9-5.4-7.3s-3.7,1.5-4.4,3.5,3,1.4,3.6,2.7c-1.6,1.3-1.8,3.2-2.8,4.7-.7-2-2.4-3-4.4-1.5s-.7,1.8-.2,3.3a12.7,12.7,0,0,0,3,4.7c-.7.8-1.2-.7-2.2-.2s-.3,5.6.6,6.8a7.5,7.5,0,0,1-4.1-.8c-.1-1.2,1.3-1.3,1.9-1.9s-1.7-3.5-3.8-3.6.4-2-.6-3a5.1,5.1,0,0,0-6,2.2c-1.4.4-1.9-1.7-2.9-2.1,2.6-.6,3.7-1.4,3.8-2.1s-3.7-2.9-6.3-2.4c1.1-3.4,2.3-11.8,1.9-13.9l.3-2.8c.4-5.7.9-18.3-1.6-23.4-.5-1-2.5-.4-3.1.6-2-1.4-5.7-1-7.4-.6s-5.5,2.4-4.9,4.4,3,.4,5.2,1.9c-.1.7.2,1.6-.3,2.2-2.6,2.3-5.2,5.2-4.9,9-.3,1,1.8,1.6.3,2.4s-.9,1.1-1.4.3V.9h-.2V0h-.7V.9h-.2V4.2h-3l-.5-.6h-2.8l-.4.6h-1.2L244.2,3,243,4.3l1,1.1v5.2l-1,1,1.4,1.4,1-1h1.1l.6.5h2.8l.5-.5h3V38.4a2.1,2.1,0,0,0-1.2,1.8c0,1.6.4,2.2,1.2,2.3v15c-2.7-.2-4.5.7-5,1.8a2,2,0,0,0,.6,2.6c1,.5,1.7-.7,2.5.2-.9,4.5-7.1,4.9-8.6,7s2,1.9,3.7,2c-1.8,1-3.5,2.4-5.5,3.1s-2.7,1.6-3.2,0a17.8,17.8,0,0,0,2.2-9.9c-3.8,1.3-.6-4-2.8-4.9h.2a1.2,1.2,0,0,0,.4-1.3c-.2-.5-1.6-.4-2.1-.3a2.3,2.3,0,0,0-1.9,1.6h-.3a27.8,27.8,0,0,0-2.6-4c-1.9-3.4,2.6-1.5,3.3-3.5s-.5-2.6-1.6-3.6-3.1-.6-4.1.3-2.3,3.9-2.5,6.3l-3.9-.4a4.4,4.4,0,0,0-2.2,1,7.6,7.6,0,0,0,2.8,3.9l1.2.9a6.4,6.4,0,0,1-2.8.6c-1.2.9,0,2.1,0,3.2-2.6.1-5,.6-6.8,2.8s4.3,3.5,5.5,3.5c-2.4,1.7-4.8.5-3.5,1.9s5,2.6,6,2.2c.5,2-2.1,1.4-1,4s2.8,2.2,4.4,2.6a9.8,9.8,0,0,0-7.3,10.6c.3,2,1.9-.4,3,.4s-.8,4.2-.3,6.2a7.1,7.1,0,0,0,.8,1.5,5.6,5.6,0,0,1,.8,3.4c0,5.3,8.7,5.5,11.8,10.3-3.7-1.8-6.9-.4-5.2,3.1a4.1,4.1,0,0,0,.5.9,4.1,4.1,0,0,0-1-.9,1.8,1.8,0,0,0-2.2,0l-.3.2a2.2,2.2,0,0,0,0,2.2c.8,1.1,2,2.3,3.5,2.2,2.8-2.8,2.2,2.7,4.7,2.5a11.8,11.8,0,0,1,1.9-3.9,16.5,16.5,0,0,0,.6-3.2,15.9,15.9,0,0,0-3.6-10.2c1.3-.8,3.2-.7,4.1-1.9-.8-1.5-1.5-3.4-3.3-4.3,0-.2.1-.3.1-.4a9.3,9.3,0,0,0,.5-3.4c-2.3-1.5-5.2-.6-7.4.2a5.5,5.5,0,0,1,4.1-6.5c.3,2.9,2.1,4.2,3.5,4.1.5-3.1,3.3-6.7,5.2-7.7s4.4.9,6.6,0a2.3,2.3,0,0,1,.8,2.2h-8.2V99.7c.1.2,0,16.8,0,16.8v12.6c0,11.9,14.4,24.4,24.9,25.6,10.7-1.8,24.9-13.8,24.9-25.9V89.6c1.3,1.5,3.5,1.9,5.3,2s-.9-2.8,1.1-3.3c2.9,1,6.2,2.8,7.1,5.8-5.6-.1-9.8-2.4-10.1.7s1.6,3,2.8,3.6a8.6,8.6,0,0,1-1.4,1.3c-.8.8-1.7,1.6-1.4,2.8s2.8.6,3.3,1.4c-8.3,10-4.2,16.8-.5,17.2,1.5.2,1.2-1.3,1.9-1.9s.9.9,1.6,1.1c2.2.7,4.4-2.8,4.6-3.8s.6-3.3-3.4-1.4c3.2-4,.6-5-4.7-2.9-.2-2.8,9.2-4.7,9.8-9.4a3.8,3.8,0,0,0,.4-3.1c-.1-1.3-.4-2.7.9-3.7s-.6-4.9.9-7.1c.8.7,1.6-.2,2.4-.3C310.7,85.7,306.7,80.9,302.8,78.4ZM270.9,50.7c-.9-4.2-.3-9.7.4-14.8C272.7,41,270.4,46.1,270.9,50.7Zm-.3-24c2.7.7-.3,7.6-1.3,15.7C270,37.1,268.9,26.2,270.6,26.7ZM253.3,41.2c-1.6-1.5,2.3-3.2,3.7-4.5.4-4.8,5.9-5.8,9.3-7.6a3.2,3.2,0,0,0,1.6-2.7c.2,1.2,0,3.1-1,3.9s-.1,1.5-.9,1.8c-1.5-3.1-1.7.8-3,1.4-2.4-2.8-1.6,2.6-2.8,3.5-1.9-2.3-3,2.1-4.9,1.9S255.3,42.8,253.3,41.2Zm11.6-3.6c-2-1.3-3.6-2.1-2.5-3S264.1,35.3,264.9,37.6ZM254.5,43c.1-.6.7-1.1,1.1-1.6s.1-1.5.8-1.6,1,2.9,1.7,4.3l2.1,3a5.6,5.6,0,0,0-5.7,1ZM266,56.7c-3.1.2-6.4.8-9.3.5.3-2.2,2.9-.3,3.5-1.6a10.3,10.3,0,0,0-3.5,0,2.5,2.5,0,0,0-1.1,1.9c-.3.1-.4-.1-.5-.3.1-4,3.9-1.5,5.6-2.3a4.3,4.3,0,0,0,1.5.9c.6.3,1.1-.3,1.6-.5s.1-.6-.3-.8-1.8-.6-2.7-.8-.1-.9-.6-1.1-.5.3-.5,1.1-.5-1.3-1.1-1.7-.7,1.2-1.1,1.1-.2-1.5-.5-1.9-.5-.3-1.4.3-1.1-1.7-.3-2.7,6.1.9,6.6-2.2c-2.9-1.9-3.1-3.9-3.8-7.4,3.9,4.1.2-.5.9-1.2s1.8,1.7,2.4.9,2-1.1,2.4,1.4c-1.8.9,1.1,1.7-.4,2.9.1,4.3,3,6,2.6,9.9-.2.2-.4.3-.3.6-.4-1.4-2.6-1.6-1.4-3.3l-.5-.5-.8.8-.6-.8a1.3,1.3,0,0,1-1.3.5c-.4-.6-.9-.5-1.4-.8s-.6.4-.5.8,3,1.4,4.3,2.4S268,54.3,266,56.7Zm.8-3.3c-.1-4.6-2.7-8.8-1.4-13.4a47.2,47.2,0,0,1,2.5,15.6C267.1,55.5,267.2,54.1,266.8,53.4Zm1.4-5.5a24,24,0,0,0-1.9-8.1c.1-2,1.4,0,1.3.8C267.8,43.4,268.4,45,268.2,47.9Zm.2-7.9c-.8-.6-.3-2.8-2.3-2.1-.6-1.5-2.9-4.3-1.8-5s1.5,2,2.2,3S269.2,38.3,268.4,40Zm.2-4c-.7.7-2.8-2.3-2-3.1S269.4,35.1,268.6,36Zm.7,18.5c-1-2.4.6-4.8-.3-7.1.9-.5-.7-.9.3-1.4a2.3,2.3,0,0,1,0-2.4A49.7,49.7,0,0,1,269.3,54.5Z" transform="translate(0 0)" style="fill:#fff"/><path d="M255.3,38.9c1.9.2,3-4.2,4.9-1.9,1.2-.9.4-6.3,2.8-3.5,1.3-.6,1.5-4.5,3-1.4.8-.3.4-1.4.9-1.8s1.2-2.7,1-3.9a3.2,3.2,0,0,1-1.6,2.7c-3.4,1.8-8.9,2.8-9.3,7.6-1.4,1.3-5.3,3-3.7,4.5S253.5,38.8,255.3,38.9Z" transform="translate(0 0)" style="fill:#00240d"/><path d="M270.6,26.7c-1.7-.5-.6,10.4-1.3,15.7C270.3,34.3,273.3,27.4,270.6,26.7Z" transform="translate(0 0)" style="fill:#00240d"/><path d="M266.5,35.9c-.7-1-.9-3.7-2.2-3s1.2,3.5,1.8,5c2-.7,1.5,1.5,2.3,2.1C269.2,38.3,267.7,35.9,266.5,35.9Z" transform="translate(0 0)" style="fill:#00240d"/><path d="M262.4,34.6c-1.1.9.5,1.7,2.5,3C264.1,35.3,263.4,33.7,262.4,34.6Z" transform="translate(0 0)" style="fill:#00240d"/><path d="M271.3,35.9c-.7,5.1-1.3,10.6-.4,14.8C270.4,46.1,272.7,41,271.3,35.9Z" transform="translate(0 0)" style="fill:#00240d"/><path d="M266.3,39.8a24,24,0,0,1,1.9,8.1c.2-2.9-.4-4.5-.6-7.3C267.7,39.8,266.4,37.8,266.3,39.8Z" transform="translate(0 0)" style="fill:#00240d"/><path d="M260.2,47.1l-2.1-3c-.7-1.4-.4-3.4-1.7-4.3s-.9.9-.8,1.6-1,1-1.1,1.6v5.1A5.6,5.6,0,0,1,260.2,47.1Z" transform="translate(0 0)" style="fill:#00240d"/><path d="M266.8,53.4c.4.7.3,2.1,1.1,2.2A47.2,47.2,0,0,0,265.4,40C264.1,44.6,266.7,48.8,266.8,53.4Z" transform="translate(0 0)" style="fill:#00240d"/><path d="M269.3,46c-1,.5.6.9-.3,1.4.9,2.3-.7,4.7.3,7.1a49.7,49.7,0,0,0,0-10.9A2.3,2.3,0,0,0,269.3,46Z" transform="translate(0 0)" style="fill:#00240d"/><path d="M266.6,32.9c-.8.8,1.3,3.8,2,3.1S267.2,32.2,266.6,32.9Z" transform="translate(0 0)" style="fill:#00240d"/><path d="M263.5,52.8c-1.3-1-3-1.3-4.3-2.4s.3-.5.5-.8,1,.2,1.4.8a1.3,1.3,0,0,0,1.3-.5l.6.8.8-.8.5.5c-1.2,1.7,1,1.9,1.4,3.3-.1-.3.1-.4.3-.6.4-3.9-2.5-5.6-2.6-9.9,1.5-1.2-1.4-2,.4-2.9-.4-2.5-1.5-2.9-2.4-1.4s-2.1-1.2-2.4-.9,3,5.3-.9,1.2c.7,3.5.9,5.5,3.8,7.4-.5,3.1-4.7.6-6.6,2.2s-.4,1.8.3,2.7,1.1-.7,1.4-.3.1,1.8.5,1.9.5-1.4,1.1-1.1.4,1.5,1.1,1.7.1-1.4.5-1.1.8.6.6,1.1,1.6,1.7,2.7.8.3.5.3.8-1,.8-1.6.5a4.3,4.3,0,0,1-1.5-.9c-1.7.8-5.5-1.7-5.6,2.3.1.2.2.4.5.3a2.5,2.5,0,0,1,1.1-1.9,10.3,10.3,0,0,1,3.5,0c-.6,1.3-3.2-.6-3.5,1.6,2.9.3,6.2-.3,9.3-.5C268,54.3,263.8,54.9,263.5,52.8Z" transform="translate(0 0)" style="fill:#00240d"/><path d="M281.6,143.3c-2.3,3.1-9.8,9.3-17.2,10.5-7.6-1-13.4-5.9-17.6-10.5,4.9-6.3,12.1-11.2,17.3-17.3Z" transform="translate(0 0)" style="fill:#678d7e"/><path d="M254.8,89.7a4.7,4.7,0,0,0,2.2,1.9,8.8,8.8,0,0,0,5.2-1.9h25.9v32.5L264.3,98.7l-23.7,23.5V89.7Z" transform="translate(0 0)" style="fill:#678d7e"/><path d="M241.5,99.3a8.7,8.7,0,0,1,17.3,0,8.7,8.7,0,1,1-17.3,0Z" transform="translate(0 0)" style="fill:#00240d"/><path d="M269.7,99.3a8.7,8.7,0,1,1,8.7,8.7A8.6,8.6,0,0,1,269.7,99.3Z" transform="translate(0 0)" style="fill:#00240d"/><path d="M255.8,141.7a8.7,8.7,0,1,1,8.6,8.7A8.7,8.7,0,0,1,255.8,141.7Z" transform="translate(0 0)" style="fill:#00240d"/><path d="M264.4,165.9c-13.7-.4-27.6-7-37.6-19.7-1.4-1.8-3.2-4.4-1.6-6.8,3.5-1.3-.7-3.3,0-5.5,3.5-.7,2.8-6.6,6.3-5.5s-.2,4,1.4,4.7,5.6,3.2,5.2,6-2.4,2-3.6,2.6c6.2,9.1,17.4,16.5,29.9,16.5s23.8-7.4,30-16.5c-1.2-.6-3.4-1.1-3.6-2.6s2.6-4.9,5.2-6-1.5-3.7,1.4-4.7,2.8,4.8,6.2,5.5c.8,2.2-3.4,4.2,0,5.5,1.7,2.4-.1,5-1.5,6.8C292.1,158.9,278.1,165.5,264.4,165.9Z" transform="translate(0 0)" style="fill:#fff"/><path d="M231.5,129.5c-2.4-1.6-2.5,4-5.2,5,.4.9.3,2.1,1.4,2.7,1.1-1.3,2-3.7,4.4-3.6-.7-.8-2.7-1.4-1.9-2.7C232.1,131.5,232.5,130.2,231.5,129.5Z" transform="translate(0 0)" style="fill:#678d7e"/><path d="M230.7,135c-1.8.9-1.7,4.2-4.1,4.6v.6c2.2-.5,3.6-3.2,5.7-3.8-.4,1.9,1.1,3,1.7,4.4,1-.7,3.1-.7,3-2.2a5.8,5.8,0,0,0-2.2-3.9l-1.4-.5,2.8,4.4-.6.5C232.7,138.5,234.5,133.2,230.7,135Z" transform="translate(0 0)" style="fill:#00240d"/><path d="M264.4,165.3c-14.5-.3-29.4-7.9-38.8-23,.1-.7,1.5-1.2,2.1-1.6s2.2-1.9,3.5-2.4c7.7,13.4,20.3,20.7,33.2,20.6s25.6-7.2,33.2-20.6a20.5,20.5,0,0,1,3.6,2.4c.5.4,2,.9,2.1,1.6C293.9,157.4,279,165,264.4,165.3Z" transform="translate(0 0)" style="fill:#b2c6bc"/><path d="M269.3,17.4c-1,.4-1.8,2.8-1.4,4.6h.6a1.3,1.3,0,0,1,2.4-.7C270.9,18.7,270,17,269.3,17.4Z" transform="translate(0 0)" style="fill:#00240d"/><path d="M267.1,19.3c-.9,1.4-.2,2.1,0,3.4C265.1,21.8,265.5,19.6,267.1,19.3Z" transform="translate(0 0)" style="fill:#00240d"/><path d="M259.4,22.1l-1.9-.4A1.1,1.1,0,0,1,259.4,22.1Z" transform="translate(0 0)" style="fill:#fff"/><path d="M269.8,22.1c-1.3.1-1.4,1.6.4,3.6C270.8,24.3,270.8,22,269.8,22.1Z" transform="translate(0 0)" style="fill:#00240d"/><path d="M264.1,23.4c-1.2.3-.3,1.9.8,2.2C265.4,24.3,265.2,23.1,264.1,23.4Z" transform="translate(0 0)" style="fill:#00240d"/><path d="M266.8,23.7c1.3.1.2,2.2,0,3.2C266.1,26,266.2,23.6,266.8,23.7Z" transform="translate(0 0)" style="fill:#00240d"/><path d="M259.7,28.6c-1.2-1.3,2.2-2.3,2.1-3.9.7.1,1.2.5,1.2,1.1C261.1,25.8,260.8,29.7,259.7,28.6Z" transform="translate(0 0)" style="fill:#00240d"/><path d="M268.7,32.4c-.1-1.1.2-2.4-.3-3.3C267.7,30.7,267,31.8,268.7,32.4Z" transform="translate(0 0)" style="fill:#00240d"/><path d="M291.9,50.4c.8,1.7,3-.1,4.1-1.1-1.5.3-.8-2.1-2.2-1.6S291.1,48.7,291.9,50.4Z" transform="translate(0 0)" style="fill:#094c38"/><path d="M233.2,50.4c.1.7,0,1.5-.8,1.6s-2.1-1.8-3.8-1c-.2-.2-.4-.3-.3-.6s2,0,2.7-.5l-1.1-.9A3.3,3.3,0,0,1,233.2,50.4Z" transform="translate(0 0)" style="fill:#094c38"/><path d="M296.4,63.1c2-2.3,4.4-4.9,5.7-7.6a1.6,1.6,0,0,0-1.3-1.4l-1.7,2.7c-.5.2-.7-.2-1.1-.5a8.8,8.8,0,0,0,1.4-3.8c-.3-.5.2-1.9-1.1-1.4s-.3-.3-.3-.5-1.2.6-2.1.2c-1,3-3.7,5.7-3,9-2,.9-.7-2.3-2.2-3s-.4.6-1.4.9-.7-.6-1.1-.9.2,1.8.3,2.8c1.6,2.3,3.6,4.4,3.5,7.3-2,.8-1.6-2.9-3.5-2.7s.8,5.5,2.2,7.4.1,3.9-.8,5.4c2.1-.4,3.1-1.9,4.9-3.2.7-5.4,6.5-5.3,10.3-6.6,2.2-1.2-.5-1.5-.5-2.4s.6-.8,1.1-.6,1.4-1.2,1.1-2.2a1.2,1.2,0,0,1-1.4-.5c.3-1.1,1.7-.1,1.9-.8h-1.9c-1.8,0-1.8,1.6-3,2.7s-.8-.3-1.1-.5,1-1.3,1.1-2-.4-.1-.5-.2.5-1.2.8-1.4S297,65.4,296.4,63.1Z" transform="translate(0 0)" style="fill:#094c38"/><path d="M254.5,55.8V51.5a20.6,20.6,0,0,0,3.3,2.7C256.7,54.7,254.8,54.2,254.5,55.8Z" transform="translate(0 0)" style="fill:#00240d"/><path d="M217.4,71.9c1.9.2,3.9-2,7-2.2-.6-1-5.3.1-8.2-3.1l1.1-1,1.3,1c1.5-.5-.5-1.3,1.1-1.8s3.1,1.4,4.4.2a5.7,5.7,0,0,1-2.2-3.8h.8c.1.7-.7,1.2.3,1.7s.5-.4.8-.6l-.3-.8c1.4-.1,2.5,1.1,3.3,1.9a1.6,1.6,0,0,0,.5,1.4c.7-.1,1.4.1,1.7-.6-2-2.5-4.5-6-7.4-7.6,0-.7-.1-1.3.6-1.7a5.4,5.4,0,0,1,5.1,1.9,1.1,1.1,0,0,0,.6-1.3c-1-.6-.4-1.9-.6-2.8a1.3,1.3,0,0,1,2.2-.2c-.2,2,1.4,3.3,2.2,4.9s1.9,2.7,1.1,4.4l.8.8c1.6-.6.3-2.4,1.7-3-.4-.9.5-1.4,1.1-1.7h.5c-.6.9-.1,2,.6,2.8.6,2.7-1.1,4.5-1.7,6.8,1.9.9,1.4-2.3,3.3-2.2-.4-.1-.6.4-.8.5s.9.8,1.1,1.1c-.5,4.1-3.8,8-1.4,12.3-4.8-2-8.3-7.3-14.5-6C220.7,73.4,218.3,73,217.4,71.9Z" transform="translate(0 0)" style="fill:#094c38"/><path d="M295.2,56.1c-2.1,1.6.8,6.2-2.5,6.3-.1-.6,1.1-.9,1.1-1.6s-.1-3.9,1.1-5Z" transform="translate(0 0)" style="fill:#fff"/><path d="M223.7,56.4c-.2.7-.8.8-1.4.8s-.3-.5-.3-.8A1.5,1.5,0,0,1,223.7,56.4Z" transform="translate(0 0)" style="fill:#fff"/><path d="M269.3,58c.4-.8.8-.1,1.3,0s.8,1.1.6,1.9-3.3,0-3.8-1.6,0-.6-.3-.8l.3-.3C268,57.5,268.3,58.4,269.3,58Z" transform="translate(0 0)" style="fill:#678d7e"/><path d="M265.4,59.4c-1.1.4-1.3-1-1.6-1.6l.5-.3Z" transform="translate(0 0)" style="fill:#678d7e"/><path d="M272,57.8v.8l-.8-1.1C271.5,57.5,271.8,57.4,272,57.8Z" transform="translate(0 0)" style="fill:#00240d"/><path d="M296.3,57.5a1.9,1.9,0,0,0-.3,1.3c.3.2.4.7.8.6L295.7,61c-.8-.7-.2-2.2,0-3.2S296,57.4,296.3,57.5Z" transform="translate(0 0)" style="fill:#fff"/><path d="M273.3,60.2c-.9-.4-.3-1.6-.5-2.4Z" transform="translate(0 0)" style="fill:#00240d"/><path d="M263.8,59.7h-.5L263,58A9.1,9.1,0,0,1,263.8,59.7Z" transform="translate(0 0)" style="fill:#678d7e"/><polygon points="254.4 61 253.7 58.6 254.5 59.9 254.4 61" style="fill:#678d7e"/><path d="M231.9,60.2l-.3.3c-.2-.2-.3-.4-.6-.3l-.2.3a1.4,1.4,0,0,1-.6-1.4C230.9,59.2,231.9,59.6,231.9,60.2Z" transform="translate(0 0)" style="fill:#fff"/><path d="M252.5,60c.1,1.2-3.1,1.7-3.3,0S252.3,57.5,252.5,60Z" transform="translate(0 0)" style="fill:#678d7e"/><polygon points="253.6 60.8 253.1 59.1 253.7 60.2 253.6 60.8" style="fill:#678d7e"/><polygon points="235.4 60.5 235.7 59.4 236.5 60.5 235.4 60.5" style="fill:#fff"/><path d="M229.4,59.9c.4.2.3.6.3.9s-.5.6-.8.5a.8.8,0,0,1,0-1.4l.2.3Z" transform="translate(0 0)" style="fill:#fff"/><path d="M266,61.6c.3-.1.4,3.2,1.1,4.4s.6,0,.8-.3-1.2-3.5-.5-5.2c1,1.4-.2,4.8,2.1,4.6-.2-1.3-.5-2.5-.8-3.8,1.7,1.7,1.6,4.8,3.8,6.3l.6-.6c-1-1.9-2.6-3.7-3-6a25.9,25.9,0,0,1,1.9,3.3c.9.6,1.6,2.5,2.7,1.7-1.6-1.5-1.9-3.4-3.3-5l.3-.2c.4,1.2,1.5,3.3,3.3,3.5s3.6-4.8,6.5-1.9c-.3.7-1,1.3-1.1,2.2,1.4.4,4.3,1.7,5,2.7-1,1-2.2,2.4-3.9,2.2a1.1,1.1,0,0,0-1.3-.5l-.3.2c.3,1.2,2.1,1.1,2.2,2.2a4.7,4.7,0,0,1-3.3,0c-.6-.6-1.1-1.3-1.9-1.3l-.6.5c3,2.9,7.2,3.7,11.2,3.3,1,0,1.7-1.3,2.5-.8s-.9,1.2-1.4,1.9l.9.5c-1.3.8-.8,3.5-3,2.7-.4.2-.3.6-.3.8s3.3.2,3,2.2a7.5,7.5,0,0,1-7.4,0c-.2-.5-.7-.1-1.1-.2l-.3.2c.6,1.3,2,1.5,2,3s-1.1.6-1.7.6c-2.2-2.6-5.1-4.4-6.3-7.1l.3-.3c1.1,0,1,2.2,2.2,1.1s-2.6-2.2-2.2-3.5l2.2,1.9.5-.6c-.7-1.1-2.6-1.7-2.2-3.2,1.3.3,2,2.6,3.3,1.9s-1.7-1.5-2.4-2.5-1.3-3-3-3.5-1.3-1.3-2.5-1.4a3.8,3.8,0,0,0-3.8,1.6c-.5.9-.1,2.4-1.4,2.8s-2.1-1-2.1-2.2a32.5,32.5,0,0,0,.8-8.5c1.3.7,0,3.5,1.6,3.8S265.1,61.8,266,61.6Z" transform="translate(0 0)" style="fill:#678d7e"/><path d="M261.8,61.9c.1.4-1.8.2-1.7.7s2-.2,2,.4-2.1.3-2,.9,2.3-.4,2.4.3-2.5.2-2.5.5,3,0,2.2.4c-3.6,2-7.9,2.3-12.3,2.2.2-1.4,2.7-.2,2.9-.8s-1.9-.4-1.8-1,1.8.3,2.1-.3-1.5-.8-1.3-1.4,1.4.7,1.7.2-1.2-.5-.6-1.3,1.5.8,2,.4-.6-2.6,2.1-.8C257.7,61.2,261.6,60.8,261.8,61.9Z" transform="translate(0 0)" style="fill:#00240d"/><path d="M233.2,65.4c-.2.2-.4.7-.8.6s-.9-.8-.3-1.1S233.1,65.2,233.2,65.4Z" transform="translate(0 0)" style="fill:#fff"/><path d="M229.4,66c0,.3.1.6-.3.8a.8.8,0,0,1-.8-.3C228.3,66.1,229,65.2,229.4,66Z" transform="translate(0 0)" style="fill:#fff"/><path d="M284,67v.3a.9.9,0,0,1-1.1-1.1C283.7,66,283.7,66.5,284,67Z" transform="translate(0 0)" style="fill:#fff"/><path d="M245.8,68.5c-.7-.8-2.5.6-2.3,1.1s7.3,1,11-.4c-3.9.2-10,1-10.1.3S246.4,69.1,245.8,68.5Z" transform="translate(0 0)" style="fill:#00240d"/><path d="M248,68.7c.1.5.8.2.8-.3S247.8,68.3,248,68.7Z" transform="translate(0 0)" style="fill:#00240d"/><path d="M268.2,74.4a5.4,5.4,0,0,1-4.1-2c.7.3,1.9.7,2.7.1s.2-2.8,1.9-3.8a2.1,2.1,0,0,1,2.7.8c.4,1.1-1.8,1.3-.8,2.2s2.1-2.2,3-1.4-1,.8-.5,1.2,1.5.1,1.1-.6c1,1.2.8,3-.8,3.2s-2.1-1.7-2.5-.5,2.7.6,2.5,2-2,.5-2.2.2S269.6,74.4,268.2,74.4Z" transform="translate(0 0)" style="fill:#094c38"/><path d="M288.4,72a12.7,12.7,0,0,1-5.5-1.7C284.6,71.3,286.9,70.6,288.4,72Z" transform="translate(0 0)" style="fill:#678d7e"/><path d="M233.2,70.9c.6-.2.9,2.9,1.4,2.7s-.1-2.4.3-2.5-.9,4.6,1.1,6l-.6.3c-1.1-.5,0-2.4-1.6-2.2s-2.4-2.2-1.9-2.4.7,2.2,2.1,1.2S232.7,71,233.2,70.9Z" transform="translate(0 0)" style="fill:#fff"/><path d="M247.4,72c.4,1.5-2.2.7-1.3,2.2a11.6,11.6,0,0,0,2.4-1.4c.4.1.3.5.3.8s-1.1.5-1.1,1.1,1.1-.5,1.9-.3-5.2,1.8-6.3,2.2c2.2-2.2-1.6.4-.8-2.2S245.9,73.1,247.4,72Z" transform="translate(0 0)" style="fill:#678d7e"/><path d="M286.7,72.8c-.9.6-2.5,0-3.5-.6C284.4,71.5,285.4,72.9,286.7,72.8Z" transform="translate(0 0)" style="fill:#678d7e"/><path d="M223.7,89.5c-.3,1.3-1.2,2.4-1,3.9a3.8,3.8,0,0,0,1.9,3,1.1,1.1,0,0,0,1.7-.3,7.1,7.1,0,0,1,1.6-5.7,10.8,10.8,0,0,0,5.5-4.6c2.3.6-1,1.9-.6,3.2s.5,2.9,1.9,3.9c.6-3.7,4.2-6.3,6.6-8.5-.8.4-3.1,2-3.5,1.6s-.6-.5,1.3-2.1c-1,.2-2.6,1.6-3,.8s1-1,1.6-1.4c-1.5-.8-2.4,1.6-2.8.3s1.6-1.8,2-1.9c-3.4,1.1-2.5-.3,0-1.7-.6.1-3,1.2-3.2.7s-.3-.7,1-1.5c-.9,0-1.9,1-2.3.6s-.5-.6,1.2-1.9c-2.3-1.5-4.4-3.3-7.3-3.3s-2.4,1.5-3.9,1.9c.2,1.7,1.6,2.5,3,3s4.8-.3,5,.8S225,81.4,223,83s-4.3,5.4-2.9,7.7c1.9,0,3.1-3.3,4.8-3.3S224.6,89,223.7,89.5Z" transform="translate(0 0)" style="fill:#678d7e"/><path d="M251.2,86.1c1-.1-.5,1.3-.5,2a4.7,4.7,0,0,0,3.3,0v-.6c-.3.1-.4-.1-.6-.3s1.1-2.2-.3-2.7a12.9,12.9,0,0,0,2.5-2.7l-.5-.6-2.8,2.2-.3-.3,2.5-2.7-.3-.3c-.3.5-.9.3-1.3.6s-.4-.3-.3-.6.4-.6.8-.5V79c-.6-.1-1.1.4-1.6.6s1.2-.7.8-1.9-1.1.8-1.9.5.8-.8,1.1-1.6l-.3-.3a1.7,1.7,0,0,1-1.9.3c-.4-.3.6-.4.8-.8-1.3,0-2.9,1.1-4.3,1.6s-1.5.8-2.2,0-3.8-.2-5.5.3a9.1,9.1,0,0,0,1.1,2.2c1.3.7,1.9.3,2.5,1.1s-3.1-.2-4.1,1c.5,1.5,2.5,1.7,4.1,2s2.5-1.8,3.5-.9-6.1,1.8-1.1,2.8,4.1-3.7,7.1-3.9c.5.3.2.8.3,1.1s-1.4.2-1.9.9a6.4,6.4,0,0,0-1.7,3.5C249.7,88.1,250.1,86.3,251.2,86.1Z" transform="translate(0 0)" style="fill:#678d7e"/><path d="M225.5,76.4c.3,1-.8.6-1.1,1.4s-1.1-.1-.8-.8A3.1,3.1,0,0,1,225.5,76.4Z" transform="translate(0 0)" style="fill:#fff"/><path d="M285.4,78.5c-.4.2-1,.8-1.7.5l-.3-.8C284.1,78.3,284.9,78,285.4,78.5Z" transform="translate(0 0)" style="fill:#fff"/><path d="M268.3,82.5c1.5,2,2.6-1.2,4.5-.7,2.3-2.5,5.3,2.8,7.1,5.4-.3-3.2-6.3-10.3-9.3-8.2-1.3.2-2.9.2-3,2C266,82.6,266,83.2,268.3,82.5Z" transform="translate(0 0)" style="fill:#00240d"/><path d="M273.3,80.7c-.2-.2-.9-1-.2-1.4S273.3,80.2,273.3,80.7Z" transform="translate(0 0)" style="fill:#fff"/><path d="M257,90.5c4.6,0,6.8-5,10.1-6.8-.5-.1-1.1.2-1.4-.3s.2-1.3.8-1.9l-1.9.5a.6.6,0,0,1-.3-.5,57.9,57.9,0,0,0-6,4.1c-1.5.1-1-2.5-1.9-2.5S254.4,89,257,90.5Z" transform="translate(0 0)" style="fill:#00240d"/><path d="M273.1,83.1c0,.4-.5.6-.8.6l-.6-.6C272.1,83,272.7,82.6,273.1,83.1Z" transform="translate(0 0)" style="fill:#00240d"/><path d="M281.2,88.3c-.2-1.2-1.9-3.4.9-2.7a3.4,3.4,0,0,0,1.3-2.2c2.3.4,3.3,3.2,4.4,4.9Z" transform="translate(0 0)" style="fill:#fff"/><path d="M270.8,88.3h-7.5c1.1-.6,2-2.1,3.5-1.9s.8,1.1,1.4,1.1.2-.5.2-.8-1.5-.9-1-1.9c1,.6,2.6.1,3,1.9Z" transform="translate(0 0)" style="fill:#00240d"/><path d="M271.2,84c0,.6-.8.5-1.1.8l-.8-.8A1.4,1.4,0,0,1,271.2,84Z" transform="translate(0 0)" style="fill:#00240d"/><path d="M275,84.2c-.1.8-.9.8-1.4,1.1l-.8-.8C273.2,83.7,274.5,83.3,275,84.2Z" transform="translate(0 0)" style="fill:#00240d"/><polygon points="260.5 85.7 261.3 84.2 261.9 84.3 260.5 85.7" style="fill:#fff"/><polygon points="261.9 87.2 262.6 85.7 262.5 87 261.9 87.2" style="fill:#fff"/><polygon points="304.2 88.1 304.4 87.9 305.8 89.2 305.5 89.4 304.2 88.1" style="fill:#fff"/><path d="M234.7,90c.2.3.3.9,0,1s-1.5-.5-1.4-1S234.5,89.6,234.7,90Z" transform="translate(0 0)" style="fill:#fff"/><path d="M297.8,107.9c-2.8,1.2-3.3,4.4-4.7,3.1s5.5-8.4,5.5-8.6-5.7,1.7-4.9-1.1c1.4,1.1,2.6-.5.8-1.1,0-.7,2.5-1.2,3.5-2.2-8.4-2.7-3.1-5.6.3-3.5,1.3.6,2.9,1.2,4.4.5s3.6-2.1,3.5-4.1c1.9,4.4-3.8,8.3-2.7,10.7.2.5.9.9.5,1.4S300.7,106.7,297.8,107.9Z" transform="translate(0 0)" style="fill:#094c38"/><path d="M224.8,93.3c-.1.6-1.5-.3-1.4.8l-.3-.3.9-1.1C224.2,92.9,224.4,93.4,224.8,93.3Z" transform="translate(0 0)" style="fill:#fff"/><path d="M225.6,94.1c.2,1-.9.9-1.4,1.3l-.5-.5C224.4,94.8,224.8,94,225.6,94.1Z" transform="translate(0 0)" style="fill:#fff"/><path d="M295.5,96.3h-1.1l.2-1.1C294.9,95.5,295.5,95.8,295.5,96.3Z" transform="translate(0 0)" style="fill:#fff"/><path d="M304.2,95.4c-.3,1.1-.3,2.1-1.7,2.2l-.2-.3a.8.8,0,0,0,.2-1.3C303.1,95.8,303.5,95.3,304.2,95.4Z" transform="translate(0 0)" style="fill:#fff"/><path d="M235.7,103.3c-.4-.1-.3-.5-.3-.8,3.9,2.7-2.2,3.2-4.6,1.7l-.9.8c1.6,1.7,4.9,3.1,5.6,5.6-.6-.6-1.1-1.3-1.5-1s.7,1.2.6,1.9c-3.3-3.1-9.4-3.2-10.4-8.7.5.4.8,1.7,1.4,1.4s-2.6-4.3-3-7.7c1.3,1.1,2.7,1.8,2.2,3.9s2,2,3.2,2.7,1-.2.9-.8-1.7-1-2.5-1.4,1.2,0,1.4-.3-1.3-.7-2-1.1,1.7.4,2-.2-1.2-.7-2.2-1c2,.2,3-1.1,4.1-1.8s3.7,0,4.3.6-4.4,2.3-3,4.1c1.2-.7,2.5,0,3.6.2C232.8,103.5,234.3,104.7,235.7,103.3Z" transform="translate(0 0)" style="fill:#094c38"/><path d="M233.2,97.3c.1.3-.1.4-.2.6s-1.7-.2-1.4-1.1S232.7,97.2,233.2,97.3Z" transform="translate(0 0)" style="fill:#fff"/><path d="M304.5,101.7a1.7,1.7,0,0,1,.8-1.9C305.7,100.7,304.5,101,304.5,101.7Z" transform="translate(0 0)" style="fill:#678d7e"/><path d="M265.7,105.2c-1.5-1-.5-3-.8-4.6C266.4,101.7,265.4,103.7,265.7,105.2Z" transform="translate(0 0)" style="fill:#00240d"/><path d="M261.1,107.2c.2-1.6-.7-3.6.8-4.7C261.6,104.1,262.6,106.1,261.1,107.2Z" transform="translate(0 0)" style="fill:#00240d"/><path d="M267.6,107.2c-1.6-1-.3-3.4-.8-4.7C268.5,103.5,267.1,106.1,267.6,107.2Z" transform="translate(0 0)" style="fill:#00240d"/><path d="M288.4,128.7c-.2,5.1-1.3,7.3-3.8,11.1l-20.3-20.1c-6.5,6-13.8,13.8-20.2,20.1a19.8,19.8,0,0,1-3.6-11l23.6-23.6C272.6,112.4,279.9,121.3,288.4,128.7Z" transform="translate(0 0)" style="fill:#678d7e"/><path d="M251.5,116.4c.3-1.5-.7-3.6.8-4.6C252,113.4,253,115.4,251.5,116.4Z" transform="translate(0 0)" style="fill:#00240d"/><path d="M301.1,118.6c-.8,1.4-4.6-2.2-5.5.4s-4.3-3.8-2.9-6.7c3.3,3.3,2.9-1.3,6.3.3,1.2.6-.4,1.9-.2,2.9S301.9,117.1,301.1,118.6Z" transform="translate(0 0)" style="fill:#678d7e"/><path d="M233.9,121.1l-.6-1.6a2.3,2.3,0,0,1-1.8.5c-.5-.7-1.8-1.1-1.4-2.2s2.9-.3,1.9-1.9l-.6-1.1c-.4.3-.4,1.1-1,.3s0-1.2.3-1.5,2.4,1.8,3.7,1.5l1.4-1.4A7.3,7.3,0,0,1,233.9,121.1Z" transform="translate(0 0)" style="fill:#678d7e"/><path d="M249.6,118.4c.3-1.6-.7-3.6.8-4.7C250.1,115.3,251.1,117.3,249.6,118.4Z" transform="translate(0 0)" style="fill:#00240d"/><path d="M302.5,115.9c0,.4.3.9-.2,1.1s-1.5-1-.8-1.6A1.6,1.6,0,0,1,302.5,115.9Z" transform="translate(0 0)" style="fill:#094c38"/><path d="M229.4,118.9c0,.3-.1.6.3.8s-2.4-.9-2.5-2.2S229.1,118.1,229.4,118.9Z" transform="translate(0 0)" style="fill:#094c38"/><path d="M244.2,123.7c.3-1.5-.7-3.4.8-4.4C244.7,120.8,245.7,122.7,244.2,123.7Z" transform="translate(0 0)" style="fill:#00240d"/><path d="M234.3,121.9c-.1.2-.3.3-.3.6l-.8-.9C233.6,121.6,233.9,122.1,234.3,121.9Z" transform="translate(0 0)" style="fill:#094c38"/><path d="M262.7,126c.3-1.5-.7-3.7.8-4.4C263.3,123.1,264.2,125.1,262.7,126Z" transform="translate(0 0)" style="fill:#00240d"/><path d="M265.7,126c-1.5-.9-.5-2.9-.8-4.4C266.4,122.3,265.4,124.5,265.7,126Z" transform="translate(0 0)" style="fill:#00240d"/><path d="M261.1,127.9c.2-1.5-.7-3.6.8-4.6C261.6,124.8,262.6,126.9,261.1,127.9Z" transform="translate(0 0)" style="fill:#00240d"/><path d="M267.6,127.9c-1.5-1-.5-3.1-.8-4.6C268.3,124.3,267.4,126.4,267.6,127.9Z" transform="translate(0 0)" style="fill:#00240d"/><path d="M259.2,129.8c.2-1.5-.7-3.6.8-4.6C259.7,126.7,260.7,128.8,259.2,129.8Z" transform="translate(0 0)" style="fill:#00240d"/><path d="M269.5,129.8c-1.5-1-.5-3.1-.8-4.6C270.2,126.2,269.3,128.3,269.5,129.8Z" transform="translate(0 0)" style="fill:#00240d"/><path d="M257.2,131.7c.3-1.5-.6-3.6.9-4.6C257.8,128.6,258.7,130.7,257.2,131.7Z" transform="translate(0 0)" style="fill:#00240d"/><path d="M271.4,131.7c-1.5-1-.5-3.1-.8-4.6C272.1,128.1,271.2,130.2,271.4,131.7Z" transform="translate(0 0)" style="fill:#00240d"/><path d="M255.3,133.6c.3-1.5-.7-3.6.8-4.6C255.9,130.5,256.8,132.6,255.3,133.6Z" transform="translate(0 0)" style="fill:#00240d"/><path d="M273.3,133.6c-1.4-1-.5-3.1-.8-4.6C274,130,273.1,132.1,273.3,133.6Z" transform="translate(0 0)" style="fill:#00240d"/><path d="M297.4,129.5c2.3-1.6,2.4,4,5.1,5-.3.9-.2,2.1-1.3,2.7-1.1-1.3-2-3.7-4.4-3.6.7-.8,2.7-1.4,1.9-2.7C296.8,131.5,296.4,130.2,297.4,129.5Z" transform="translate(0 0)" style="fill:#678d7e"/><path d="M253.4,135.3c.3-1.5-.7-3.5.8-4.4C254,132.4,254.9,134.3,253.4,135.3Z" transform="translate(0 0)" style="fill:#00240d"/><path d="M275.2,135.3c-1.5-1-.5-2.9-.8-4.4C275.9,131.8,275,133.8,275.2,135.3Z" transform="translate(0 0)" style="fill:#00240d"/><path d="M251.5,137.2c.3-1.5-.7-3.4.8-4.4C252,134.3,253,136.2,251.5,137.2Z" transform="translate(0 0)" style="fill:#00240d"/><path d="M276.9,137.2c-1.5-1-.6-2.9-.8-4.4C277.6,133.8,276.6,135.7,276.9,137.2Z" transform="translate(0 0)" style="fill:#00240d"/><path d="M298.2,135c1.8.9,1.7,4.2,4.1,4.6v.6c-2.2-.5-3.6-3.2-5.7-3.8.4,1.9-1.1,3-1.8,4.4-.9-.7-3-.7-2.9-2.2a5.8,5.8,0,0,1,2.2-3.9l1.4-.5-2.8,4.4.6.5C296.2,138.5,294.4,133.2,298.2,135Z" transform="translate(0 0)" style="fill:#00240d"/><path d="M249.6,139.1c.2-1.4-.4-3.3.5-4.4C250.4,135.8,251,138.2,249.6,139.1Z" transform="translate(0 0)" style="fill:#00240d"/><path d="M278.8,139.1c-1.5-.9-.5-2.9-.8-4.4C279.5,135.4,278.5,137.7,278.8,139.1Z" transform="translate(0 0)" style="fill:#00240d"/><path d="M280.7,141c-1.5-1-.5-3.1-.8-4.6C281.4,137.4,280.4,139.5,280.7,141Z" transform="translate(0 0)" style="fill:#00240d"/><path d="M248,141c.1-1.4-.5-3.2.5-4.4C248.3,138.1,249,139.9,248,141Z" transform="translate(0 0)" style="fill:#00240d"/><path d="M282.6,141.6l-.5.5-.3-3.8C283.3,138.9,282.4,140.5,282.6,141.6Z" transform="translate(0 0)" style="fill:#00240d"/><path d="M246.6,142.1c-1-.6-.4-1.8-.5-2.7l.8-.8C246.8,139.7,247.1,141.1,246.6,142.1Z" transform="translate(0 0)" style="fill:#00240d"/><path d="M293.5,73.9c-.6.6.2-1.4-.6-1.5s-.5.9-.8,2.2C290.4,70.9,295.6,69.2,293.5,73.9Z" transform="translate(0 0)" style="fill:#fff"/><path d="M285.8,83.3c2.6,2.1,3.3,5.8,6.8,6.6-.4-.3-.4-.7-.6-1.1s.6-.3.9-.3.7,1,.5,1.6h.6c.5-.2.1-.9.2-1.3s-3.1-2.2-2.2-4.1c1,0,1.4,1.2,2,1.9,3.6.8,7.7,2.4,9.5,6,.3-1.1-1.9-3.1-.8-3.8s1.6,1,1.6,1.9c1.6-1.2-2-1.8-1.1-3s-1.5-2.7-.8-3.3,1.1,1.9,3.6,3.3a3.2,3.2,0,0,0,2.7,0c-.3-7-12.1-10.5-11.2-10.7,7.5-1.3,8.6-2.5,8.4-3.4s-7.1-1.1-9.2-.7c2.3.9,1.5,1.4-.8,1.7,1.4,1.4,1.3,2-2.2,1.3,1.8,1.3,2,2.1-1.4,1.7,4.5,1.4,5.4,2.8-.6,1.1-1.4-.4-2.9,0-1,.5,5.3,1.6,8,3.9-.6.8,3,2,6.4,3.8-.2,1.7,2,1.9,1.4,2.7-.6.9,1.6,2,0,2-1.6.4C289.1,85.5,287.8,85,285.8,83.3Z" transform="translate(0 0)" style="fill:#678d7e"/><path d="M264.4,26.6c1.1,1.1-.8,2.7-1.5,2S263.2,25.6,264.4,26.6Z" transform="translate(0 0)" style="fill:#00240d"/><path d="M262.1,29.1c.6.5-1,1.8-1.4,1.2S261.3,28.4,262.1,29.1Z" transform="translate(0 0)" style="fill:#00240d"/><path d="M258.9,29.1c1,.6.3,2.6-.9,2.1S258,28.5,258.9,29.1Z" transform="translate(0 0)" style="fill:#00240d"/><path d="M257.1,31.8c1.3.3.9,1.8-.3,1.6S256.5,31.7,257.1,31.8Z" transform="translate(0 0)" style="fill:#00240d"/><path d="M261.4,59c.4,1.5-3.4,2.2-3.8.6S261,57.5,261.4,59Z" transform="translate(0 0)" style="fill:#00240d"/><path d="M255.2,60.1s-1.1-1.6-.5-1.7S255.4,59.3,255.2,60.1Z" transform="translate(0 0)" style="fill:#678d7e"/><path d="M256.6,59.2c.4.2.2,1.2-.3.9S256.4,59.1,256.6,59.2Z" transform="translate(0 0)" style="fill:#00240d"/><path d="M265.3,57.4c.8.4,2.1,1.5,1.5,1.8S265.8,58,265.3,57.4Z" transform="translate(0 0)" style="fill:#678d7e"/><path d="M273.7,57.7c1.6.6,2.1,1.4,1.5,1.8S273.9,58.7,273.7,57.7Z" transform="translate(0 0)" style="fill:#00240d"/><path d="M270,69.4c.2.6-1,1.7-1.2,1.2S269.9,69,270,69.4Z" transform="translate(0 0)" style="fill:#fff"/><path d="M273.3,78c0,.6-1-.1-1.7.2-4.7,1.4-9.7,2.1-13,6.3-1.8-2.7-2.9-5.1-5.2-7.6a32.8,32.8,0,0,1-4.9-5.8c5.3-.2,10.3-1.2,14.2-4.9.3.7.6,1.2-.5,1.7-.8,3.1,1.1,5.1,2.4,7.3,1.6-.5,2.7-.8,1.9,1.1a5.5,5.5,0,0,1,2.2-.6l-1.3,1.2a25.3,25.3,0,0,0,4.9-.6h.8v.6c-1.5.1-6.9,1-6.6,1.6S273.4,77,273.3,78Z" transform="translate(0 0)" style="fill:#00240d"/><path d="M255.3,71.1a10,10,0,0,1-4.9.9Z" transform="translate(0 0)" style="fill:#fff"/><path d="M255.6,73.1c-.9.8-2.3.4-3.6.5C253,73.4,254.2,72.8,255.6,73.1Z" transform="translate(0 0)" style="fill:#fff"/><path d="M256.4,74.4c-.4,1.2-1.9.7-3,.8C253.9,74.2,255.6,75,256.4,74.4Z" transform="translate(0 0)" style="fill:#fff"/><path d="M256.7,76.1c-.1.9-1.3.4-1.9.8l-.3-.3C255.2,76.4,255.8,75.8,256.7,76.1Z" transform="translate(0 0)" style="fill:#fff"/><path d="M257.5,78.2c-.4.5-1.1.2-1.6.3S257.1,77.7,257.5,78.2Z" transform="translate(0 0)" style="fill:#fff"/><path d="M222.7,71.2c.2.5-1.3,1.1-1.5.5S222.5,70.7,222.7,71.2Z" transform="translate(0 0)" style="fill:#fff"/><path d="M230.9,81.7c.6-.5,1.9.6,1,1.2S230.7,81.9,230.9,81.7Z" transform="translate(0 0)" style="fill:#fff"/><path d="M220.4,90.2c.4.3,1-.2.7-.6s-.9.4-.8.6" transform="translate(0 0)" style="fill:#fff"/><path d="M226.7,88c.4-.5-.2-1.9.5-1.5S227.6,87.8,226.7,88Z" transform="translate(0 0)" style="fill:#fff"/><path d="M227.2,89.3c.6-.8,1.1-1.2,1.5-.5S228,89.7,227.2,89.3Z" transform="translate(0 0)" style="fill:#fff"/><path d="M253.4,10.4a8.6,8.6,0,0,0,0-4.5h-.8a9.6,9.6,0,0,0,.1,4.5Z" transform="translate(0 0)" style="fill:#00240d"/><polygon points="245.8 6.7 246.6 5.9 245.8 5 244.9 5.9 245.8 6.7" style="fill:#00240d"/><rect x="250.5" y="5.3" width="1.2" height="1.2" transform="translate(69.2 179.1) rotate(-44.9)" style="fill:#00240d"/><rect x="245.2" y="9.7" width="1.2" height="1.2" transform="translate(65 177.2) rotate(-45.1)" style="fill:#00240d"/><rect x="250.5" y="9.7" width="1.2" height="1.2" transform="translate(66.2 180.5) rotate(-45)" style="fill:#00240d"/><rect x="246.9" y="6.5" width="3.2" height="3.25" transform="translate(67.1 178.2) rotate(-45)" style="fill:#00240d"/><path d="M248.5,5.2c.6,0,1.1-.3,1.1-.6s-.5-.6-1.1-.6-1.1.2-1.1.6S247.9,5.2,248.5,5.2Z" transform="translate(0 0)" style="fill:#00240d"/><path d="M248.5,12.2c.6,0,1.1-.3,1.1-.6s-.5-.6-1.1-.6-1.1.3-1.1.6S247.9,12.2,248.5,12.2Z" transform="translate(0 0)" style="fill:#00240d"/><path d="M244.3,4.8a.5.5,0,0,0,.5-.5c0-.2-.3-.4-.5-.4a.5.5,0,0,0-.5.4A.5.5,0,0,0,244.3,4.8Z" transform="translate(0 0)" style="fill:#00240d"/><circle cx="244.3" cy="11.7" r="0.5" style="fill:#00240d"/><path d="M264.3,116.8a3.7,3.7,0,0,0,3.7-3.7,3.7,3.7,0,0,0-7.3,0A3.7,3.7,0,0,0,264.3,116.8Z" transform="translate(0 0)" style="fill:#fff"/><path d="M263,116c-1.5-1.4-2.9-3.2-.1-5.5C261.6,113.6,262,112.9,263,116Z" transform="translate(0 0)" style="fill:#00240d"/><path d="M264.6,116.4c-2.6-1.3-3.1-4.5,0-6.4C262.7,113.1,262.7,113.3,264.6,116.4Z" transform="translate(0 0)" style="fill:#00240d"/><path d="M265.7,116.1c-2.2-1-3-4,0-5.7C264,112.9,264.1,113.7,265.7,116.1Z" transform="translate(0 0)" style="fill:#00240d"/><path d="M266.6,115.4c-2.1-1.2-2.5-2.9,0-4.3C265.4,112.4,265.6,114,266.6,115.4Z" transform="translate(0 0)" style="fill:#00240d"/><path d="M267.1,114.6a1.5,1.5,0,0,1,.1-2.8C266.5,112.3,266.7,114.2,267.1,114.6Z" transform="translate(0 0)" style="fill:#00240d"/><path d="M255.6,124.8a3.7,3.7,0,1,0-3.6-3.6A3.6,3.6,0,0,0,255.6,124.8Z" transform="translate(0 0)" style="fill:#fff"/><path d="M254.3,124c-1.5-1.4-2.9-3.2-.1-5.5C252.9,121.6,253.3,121,254.3,124Z" transform="translate(0 0)" style="fill:#00240d"/><path d="M255.9,124.4c-2.6-1.3-3.1-4.5,0-6.4C254,121.2,254,121.3,255.9,124.4Z" transform="translate(0 0)" style="fill:#00240d"/><path d="M257,124.1c-2.2-1-3-4,0-5.6C255.3,120.9,255.4,121.7,257,124.1Z" transform="translate(0 0)" style="fill:#00240d"/><path d="M257.9,123.4c-2.1-1.2-2.5-2.9,0-4.3C256.7,120.4,256.9,122,257.9,123.4Z" transform="translate(0 0)" style="fill:#00240d"/><path d="M258.4,122.7a1.5,1.5,0,0,1,.1-2.8C257.8,120.4,258,122.2,258.4,122.7Z" transform="translate(0 0)" style="fill:#00240d"/><path d="M247.2,133a3.7,3.7,0,1,0,0-7.3,3.7,3.7,0,0,0,0,7.3Z" transform="translate(0 0)" style="fill:#fff"/><path d="M245.9,132.2c-1.5-1.4-2.9-3.2-.1-5.5C244.5,129.8,244.9,129.2,245.9,132.2Z" transform="translate(0 0)" style="fill:#00240d"/><path d="M247.4,132.6c-2.5-1.3-3-4.5.1-6.4C245.6,129.3,245.6,129.5,247.4,132.6Z" transform="translate(0 0)" style="fill:#00240d"/><path d="M248.6,132.3c-2.3-1-3-4,0-5.6C246.9,129.1,246.9,129.9,248.6,132.3Z" transform="translate(0 0)" style="fill:#00240d"/><path d="M249.5,131.6c-2.1-1.2-2.5-2.9,0-4.3A3.1,3.1,0,0,0,249.5,131.6Z" transform="translate(0 0)" style="fill:#00240d"/><path d="M250,130.8a1.4,1.4,0,0,1,.1-2.7A2.3,2.3,0,0,0,250,130.8Z" transform="translate(0 0)" style="fill:#00240d"/><path d="M273,124.8a3.7,3.7,0,0,0,0-7.4,3.7,3.7,0,1,0,0,7.4Z" transform="translate(0 0)" style="fill:#fff"/><path d="M271.6,124c-1.4-1.4-2.9-3.3-.1-5.5C270.3,121.5,270.6,120.9,271.6,124Z" transform="translate(0 0)" style="fill:#00240d"/><path d="M273.2,124.4c-2.6-1.4-3.1-4.5.1-6.4C271.4,121.1,271.4,121.3,273.2,124.4Z" transform="translate(0 0)" style="fill:#00240d"/><path d="M274.3,124c-2.2-1-2.9-3.9,0-5.6C272.6,120.9,272.7,121.7,274.3,124Z" transform="translate(0 0)" style="fill:#00240d"/><path d="M275.2,123.4c-2-1.2-2.4-3,0-4.3C274,120.4,274.2,121.9,275.2,123.4Z" transform="translate(0 0)" style="fill:#00240d"/><path d="M275.8,122.6a1.5,1.5,0,0,1,.1-2.8C275.2,120.3,275.3,122.2,275.8,122.6Z" transform="translate(0 0)" style="fill:#00240d"/><path d="M281.2,132.8a3.7,3.7,0,0,0,3.7-3.7,3.7,3.7,0,0,0-7.3,0A3.7,3.7,0,0,0,281.2,132.8Z" transform="translate(0 0)" style="fill:#fff"/><path d="M279.9,132c-1.5-1.4-2.9-3.2-.1-5.5C278.5,129.6,278.9,128.9,279.9,132Z" transform="translate(0 0)" style="fill:#00240d"/><path d="M281.5,132.4c-2.6-1.3-3.1-4.5,0-6.4C279.6,129.1,279.6,129.3,281.5,132.4Z" transform="translate(0 0)" style="fill:#00240d"/><path d="M282.6,132.1c-2.3-1-3-4,0-5.7C280.9,128.9,281,129.7,282.6,132.1Z" transform="translate(0 0)" style="fill:#00240d"/><path d="M283.5,131.4c-2.1-1.2-2.5-2.9,0-4.3C282.3,128.4,282.5,130,283.5,131.4Z" transform="translate(0 0)" style="fill:#00240d"/><path d="M284,130.6a1.5,1.5,0,0,1,.1-2.8C283.4,128.3,283.5,130.2,284,130.6Z" transform="translate(0 0)" style="fill:#00240d"/><path d="M286.5,97.4c-1.3,0-1.4-2.3-2.6-2.3s-1.8,2.3-2.8,2.3-1.5-2.3-2.7-2.3-1.7,2.3-2.8,2.3-1.3-2.3-2.6-2.3-1,2.1-2.6,2.1a9,9,0,0,1,2.6-4.3c1.3,0,1.5,2.3,2.6,2.3s1.8-2.3,2.8-2.3,1.6,2.3,2.7,2.3,1.3-2.3,2.8-2.3A8.2,8.2,0,0,1,286.5,97.4Z" transform="translate(0 0)" style="fill:#fff"/><path d="M283.9,98.3c1.5,0,1.2,2.1,2.7,2.1a4.4,4.4,0,0,1-.6,2.1c-1,0-1-2-2.1-2s-1.8,2.2-2.8,2.2-1.5-2.2-2.7-2.2-1.7,2.2-2.8,2.2-1.3-2.2-2.6-2.2-1.2,2-2.1,2a4,4,0,0,1-.6-2.1c1.6,0,1.7-2.1,2.7-2.1s1.5,2.2,2.6,2.2,1.8-2.2,2.8-2.2,1.6,2.2,2.7,2.2,1.3-2.2,2.8-2.2" transform="translate(0 0)" style="fill:#fff"/><path d="M283.9,103.5a1.2,1.2,0,0,1,1.1.7,8.2,8.2,0,0,1-13.1,0,1.4,1.4,0,0,1,1.1-.7c1.3,0,1.5,2.2,2.6,2.2s1.8-2.2,2.8-2.2,1.6,2.2,2.7,2.2S282.4,103.5,283.9,103.5Z" transform="translate(0 0)" style="fill:#fff"/><path d="M272.5,139.9c-1.4,0-1.4-2.2-2.7-2.2S268,140,267,140s-1.5-2.3-2.6-2.3-1.7,2.3-2.8,2.3-1.4-2.3-2.6-2.3-1.1,2.1-2.6,2.1a7.7,7.7,0,0,1,2.6-4.3c1.2,0,1.4,2.3,2.6,2.3s1.8-2.3,2.8-2.3,1.6,2.3,2.6,2.3,1.4-2.3,2.8-2.3A8.3,8.3,0,0,1,272.5,139.9Z" transform="translate(0 0)" style="fill:#fff"/><path d="M269.8,140.9c1.5,0,1.3,2.1,2.8,2.1a5.9,5.9,0,0,1-.6,2.1c-1.1,0-1.1-2-2.2-2s-1.8,2.2-2.8,2.2-1.5-2.2-2.6-2.2-1.7,2.2-2.8,2.2-1.4-2.2-2.6-2.2-1.2,2-2.1,2a5.2,5.2,0,0,1-.7-2.1c1.7,0,1.7-2.1,2.8-2.1s1.4,2.2,2.6,2.2,1.8-2.2,2.8-2.2,1.6,2.2,2.6,2.2,1.4-2.2,2.8-2.2" transform="translate(0 0)" style="fill:#fff"/><path d="M269.8,146.1c.7,0,.9.4,1.2.7a8.3,8.3,0,0,1-13.2,0,1.7,1.7,0,0,1,1.2-.7c1.2,0,1.4,2.2,2.6,2.2s1.8-2.2,2.8-2.2,1.6,2.2,2.6,2.2S268.4,146.1,269.8,146.1Z" transform="translate(0 0)" style="fill:#fff"/><path d="M258.2,97.6c-1.3,0-1.4-2.2-2.6-2.2s-1.8,2.2-2.9,2.2-1.4-2.2-2.6-2.2-1.7,2.2-2.8,2.2-1.4-2.2-2.6-2.2-1.1,2.1-2.6,2.1a7.6,7.6,0,0,1,2.6-4.3c1.2,0,1.5,2.2,2.6,2.2s1.8-2.2,2.8-2.2,1.6,2.2,2.6,2.2,1.4-2.2,2.9-2.2A7.9,7.9,0,0,1,258.2,97.6Z" transform="translate(0 0)" style="fill:#fff"/><path d="M255.6,98.5c1.4,0,1.2,2.1,2.7,2.1a5.9,5.9,0,0,1-.6,2.1c-1.1,0-1.1-2-2.1-2s-1.8,2.3-2.9,2.3-1.4-2.3-2.6-2.3-1.7,2.3-2.8,2.3-1.4-2.3-2.6-2.3-1.2,2-2.1,2a3.7,3.7,0,0,1-.6-2.1c1.6,0,1.7-2.1,2.7-2.1s1.5,2.2,2.6,2.2,1.8-2.2,2.8-2.2,1.6,2.2,2.6,2.2,1.4-2.2,2.9-2.2" transform="translate(0 0)" style="fill:#fff"/><path d="M255.6,103.7c.6,0,.8.4,1.1.7a8.2,8.2,0,0,1-13.1,0,1.4,1.4,0,0,1,1.1-.7c1.2,0,1.5,2.3,2.6,2.3s1.8-2.3,2.8-2.3,1.6,2.3,2.6,2.3S254.1,103.7,255.6,103.7Z" transform="translate(0 0)" style="fill:#fff"/><path d="M269.5,108.9c-1.7-1-.4-3.4-.9-4.6C270.3,105.3,269,107.9,269.5,108.9Z" transform="translate(0 0)" style="fill:#00240d"/><path d="M271.4,110.7c-1.7-1.1-.3-3.5-.8-4.7C272.2,107,270.9,109.6,271.4,110.7Z" transform="translate(0 0)" style="fill:#00240d"/><path d="M273.3,112.8c-1.6-1-.3-3.4-.8-4.7C274.2,109.1,272.8,111.7,273.3,112.8Z" transform="translate(0 0)" style="fill:#00240d"/><path d="M275.2,114.6c-1.6-1.1-.3-3.5-.8-4.7C276.1,110.9,274.7,113.5,275.2,114.6Z" transform="translate(0 0)" style="fill:#00240d"/><path d="M276.9,116.4c-1.6-1-.3-3.4-.8-4.7C277.8,112.7,276.4,115.3,276.9,116.4Z" transform="translate(0 0)" style="fill:#00240d"/><path d="M278.8,118.4c-1.6-1.1-.3-3.5-.8-4.7C279.7,114.7,278.3,117.3,278.8,118.4Z" transform="translate(0 0)" style="fill:#00240d"/><path d="M280.7,120.2c-1.6-1-.3-3.4-.8-4.6C281.5,116.6,280.2,119.2,280.7,120.2Z" transform="translate(0 0)" style="fill:#00240d"/><path d="M282.6,122c-1.6-1-.3-3.4-.8-4.6C283.5,118.4,282.1,121,282.6,122Z" transform="translate(0 0)" style="fill:#00240d"/><path d="M284.5,123.8c-1.6-1-.3-3.4-.8-4.6C285.4,120.2,284,122.8,284.5,123.8Z" transform="translate(0 0)" style="fill:#00240d"/><path d="M286.5,125.9c-1.7-1.1-.4-3.5-.9-4.7C287.3,122.2,286,124.8,286.5,125.9Z" transform="translate(0 0)" style="fill:#00240d"/><path d="M288.2,127.5c-1.6-1-.3-3.4-.8-4.7C289.1,123.8,287.8,126.4,288.2,127.5Z" transform="translate(0 0)" style="fill:#00240d"/><path d="M262.7,105.2c1.7-1,.3-3.4.8-4.6C261.9,101.6,263.2,104.2,262.7,105.2Z" transform="translate(0 0)" style="fill:#00240d"/><path d="M259.2,108.9c1.6-1,.3-3.4.8-4.7C258.3,105.2,259.7,107.8,259.2,108.9Z" transform="translate(0 0)" style="fill:#00240d"/><path d="M257.4,110.6c1.6-1,.3-3.4.8-4.6C256.6,107,257.9,109.6,257.4,110.6Z" transform="translate(0 0)" style="fill:#00240d"/><path d="M255.5,112.6c1.6-1,.3-3.4.8-4.7C254.6,108.9,255.9,111.5,255.5,112.6Z" transform="translate(0 0)" style="fill:#00240d"/><path d="M253.7,114.4c1.6-1,.3-3.4.8-4.7C252.8,110.7,254.2,113.3,253.7,114.4Z" transform="translate(0 0)" style="fill:#00240d"/><path d="M247.9,120.2c1.6-1,.3-3.4.8-4.7C247,116.5,248.4,119.1,247.9,120.2Z" transform="translate(0 0)" style="fill:#00240d"/><path d="M246,122c1.6-1,.3-3.4.8-4.7C245.2,118.3,246.5,120.9,246,122Z" transform="translate(0 0)" style="fill:#00240d"/><path d="M240.6,127.3c1.6-1,.3-3.4.8-4.7C239.7,123.6,241.1,126.2,240.6,127.3Z" transform="translate(0 0)" style="fill:#00240d"/><path d="M242.4,125.5c1.7-1,.4-3.4.9-4.6C241.6,121.9,242.9,124.5,242.4,125.5Z" transform="translate(0 0)" style="fill:#00240d"/><path d="M266.3,17.6v-.2h-1a.6.6,0,0,1-1.2,0c-3.6-.1-7.3,1.1-7.7,2.7a2.1,2.1,0,0,0,.3,1.6c1.2-2.1,4.7,0,5.7,2.2.7-1.1,1.4-2,2.8-1.6,0-1.3-1-2.8-2.2-2.7.8-.7,2.6.2,3-1.1C264.7,18.4,265.3,17.7,266.3,17.6Z" transform="translate(0 0)" style="fill:#00240d"/><path d="M261.3,19.3h-.8c-.2-.5.3-1.1.8-.8Z" transform="translate(0 0)" style="fill:#fff"/><path d="M241.1,99.4a9,9,0,1,1,9,9A9,9,0,0,1,241.1,99.4Zm9,8.1a8.1,8.1,0,1,0,0-16.2,8.1,8.1,0,1,0,0,16.2Z" transform="translate(0 0)" style="fill:#b2c6bc"/><path d="M269.5,99.2a9,9,0,1,1,8.9,9A8.9,8.9,0,0,1,269.5,99.2Zm8.9,8.1a8.2,8.2,0,0,0,8.2-8.1,8.2,8.2,0,0,0-8.2-8.2,8.2,8.2,0,0,0-8.1,8.2A8.1,8.1,0,0,0,278.4,107.3Z" transform="translate(0 0)" style="fill:#b2c6bc"/><path d="M255.4,141.8a9,9,0,1,1,9,9A9,9,0,0,1,255.4,141.8Zm9,8.1a8.1,8.1,0,0,0,8.1-8.1,8.1,8.1,0,1,0-16.2,0A8.1,8.1,0,0,0,264.4,149.9Z" transform="translate(0 0)" style="fill:#b2c6bc"/><path d="M234.7,146.3c.2-.4.4-.8,0-1.2a.6.6,0,0,0-.9,0c-.4.3-.3.6-.2,1.2s.3,1.1-.2,1.6a1.2,1.2,0,0,1-1.8-.3c-.2-.2-.3-.3-.3-.5l-.2-.3.7-.8h.1c-.2.4-.5,1-.1,1.5a.8.8,0,0,0,1.1,0,1.2,1.2,0,0,0,.2-1.2,1.6,1.6,0,0,1,.2-1.6c.4-.4,1.1-.3,1.7.3l.4.6-.6.7Z" transform="translate(0 0)" style="fill:#00240d"/><path d="M234.9,151h.1c.3.2.4.2.5,0a7.3,7.3,0,0,0,.5-.9l-1-1-.7.4c-.4.2-.4.3-.1.6v.2l-1-1h.1c.3.2.4.3,1,0l3.2-1.4h.2l-1.5,3.2c-.3.5-.2.6,0,.9v.2Zm1.9-2.8h0l-1.5.7.8.8Z" transform="translate(0 0)" style="fill:#00240d"/><path d="M240.4,150.5a1.8,1.8,0,0,1,.7.9,1.1,1.1,0,0,1-.3.9,1.2,1.2,0,0,1-1.7.2l-.3-.2-.2-.3-.7.7c-.3.4-.3.5.1.9h-.1l-1.3-1.1h.1c.4.3.5.3.8-.1l1.6-1.9c.4-.5.4-.5,0-.8l.2-.2Zm-1.7,1.3.3.3a.8.8,0,0,0,1.3-.1.9.9,0,0,0-.1-1.4l-.3-.2-.2.2Z" transform="translate(0 0)" style="fill:#00240d"/><path d="M239.6,155.1v-.2c.5.3.5.3.8-.1l1.5-2c.3-.4.3-.5-.1-.8v-.2l1.4,1h-.1c-.5-.2-.5-.2-.8.2l-1.5,2c-.3.4-.3.5.1.8v.2Z" transform="translate(0 0)" style="fill:#00240d"/><path d="M244.9,157.5l-.7.7-2.5-1.6v-.2c.5.3.5.3.8-.1l1.3-2.1c.3-.5.3-.5-.1-.8v-.2l2.4,1.5-.5.8h-.1a4.3,4.3,0,0,1,.1-.5c0-.2-.1-.3-.5-.6l-.4-.2h-.3l-.8,1.2.5.3c.5.4.6.3.8,0h.2l-.6,1h-.2c.2-.4.2-.5-.3-.7l-.5-.4-.6,1c-.2.3-.2.4-.2.5l.5.5c.4.2.6.3.8.2l.6-.3Z" transform="translate(0 0)" style="fill:#00240d"/><path d="M250.7,157.2c-.4-.1-.5-.1-.7.1l-.5.9-1.1,2.3h-.2l-.9-4.1h0l-.7,1.4a2.5,2.5,0,0,0-.4.9c-.2.3-.1.5.3.7h-.1l-1.3-.6v-.2c.3.2.5.2.7-.1l.5-.9.6-1.3c.2-.4.2-.4.2-.6l-.4-.4v-.2l.9.4.9,4h0l.7-1.4a2.5,2.5,0,0,0,.4-.9c.1-.3,0-.4-.4-.6v-.2l1.3.7Z" transform="translate(0 0)" style="fill:#00240d"/><path d="M252.9,158.8c0-.4,0-.8-.5-1a.6.6,0,0,0-.9.4c-.2.4,0,.7.4,1.1a1.6,1.6,0,0,1,.6,1.6,1.3,1.3,0,0,1-1.7.6l-.6-.3-.2-.3a5.1,5.1,0,0,1,.2-.9h.2a1,1,0,0,0,.6,1.3.6.6,0,0,0,.9-.4c.2-.5-.1-.8-.4-1.2a1.3,1.3,0,0,1-.5-1.5,1,1,0,0,1,1.5-.6l.7.4a5.1,5.1,0,0,1-.2.9Z" transform="translate(0 0)" style="fill:#00240d"/><path d="M258.7,164.5l-.7-.2a6.4,6.4,0,0,1-1.3-1.1,2.5,2.5,0,0,1-1.2-.8,2.1,2.1,0,0,1-.3-1.6,2,2,0,0,1,2.5-1.7,2.1,2.1,0,0,1-.2,4.1,7.7,7.7,0,0,0,1.3,1.2Zm-1.5-1.6h.1c.5,0,1.1-.5,1.3-1.4s-.2-2.2-1.1-2.3-1.4.3-1.6,1.5.1,1.9.8,2.1Z" transform="translate(0 0)" style="fill:#00240d"/><path d="M264.3,160c-.4,0-.5.1-.6.3v1.6a2.5,2.5,0,0,1-.5,1.6,1.7,1.7,0,0,1-1.2.4l-1-.4a1.7,1.7,0,0,1-.4-1.5v-1.6c0-.5-.1-.6-.6-.6v-.2h1.6v.2c-.5,0-.6,0-.6.6v1.4c0,1,.3,1.6,1.1,1.6s1.2-.7,1.3-1.7v-1.5c0-.2-.1-.3-.6-.4v-.2h1.5Z" transform="translate(0 0)" style="fill:#00240d"/><path d="M265,163.8v-.2c.5,0,.5-.1.5-.6v-2.5c0-.5-.1-.6-.6-.6h1.6v.2c-.6,0-.6.1-.6.6V163c0,.5.1.5.6.6H265Z" transform="translate(0 0)" style="fill:#00240d"/><path d="M270.3,159.3a1.4,1.4,0,0,1,1.1.1,1.2,1.2,0,0,1,.5.8,1.2,1.2,0,0,1-1,1.4h-.8l.2,1c0,.5.1.6.7.5v.2l-1.7.2h0c.5-.2.5-.2.5-.7l-.4-2.5c-.1-.5-.1-.6-.6-.5v-.2Zm-.2,2.1h.5c.4,0,.8-.3.7-1.1a.9.9,0,0,0-1.1-.8h-.3v.3Z" transform="translate(0 0)" style="fill:#00240d"/><path d="M276.8,162.1h-.2a.9.9,0,0,1-1.1-.3l-.9-.8a.4.4,0,0,0-.5-.1h-.2l.2,1c.1.5.2.5.7.5h0l-1.6.4v-.2c.5-.1.5-.2.4-.7l-.6-2.4c-.1-.5-.2-.5-.7-.5h0l1.5-.4h1a.9.9,0,0,1,.6.7,1.1,1.1,0,0,1-.5,1.2l.8.7.6.6h.5Zm-2.7-1.4a.9.9,0,0,0,.6-.4.8.8,0,0,0,.2-.8.9.9,0,0,0-1.1-.7l-.3.2c-.1,0-.1.1,0,.2l.3,1.5Z" transform="translate(0 0)" style="fill:#00240d"/><path d="M278,157.2a2,2,0,0,1,2.6,1.3,2,2,0,0,1-1.2,2.7,2,2,0,0,1-2.6-1.2,2.1,2.1,0,0,1,1.2-2.8Zm0,.3c-.7.2-1.1,1-.7,2.1s1.4,1.7,2.2,1.4,1-1,.6-2.2-1.3-1.6-2.1-1.3Z" transform="translate(0 0)" style="fill:#00240d"/><path d="M282.8,156.2c-.3-.3-.6-.6-1.1-.3a.6.6,0,0,0-.3.9c.2.4.6.4,1.1.4s1.2,0,1.5.7a1.2,1.2,0,0,1-.7,1.7h-.9l-.6-.8h.2c.2.2.7.7,1.3.4a.7.7,0,0,0,.4-1c-.2-.4-.6-.5-1.2-.5a1.7,1.7,0,0,1-1.5-.6,1.3,1.3,0,0,1,.7-1.6l.8-.2.4.7Z" transform="translate(0 0)" style="fill:#00240d"/><path d="M284.5,154.1l1-.3a1,1,0,0,1,.8.5,1.3,1.3,0,0,1-.3,1.8h-.2l-.5.2.5.8c.3.4.4.4.9.2h.1l-1.5.9h-.1c.4-.3.4-.4.2-.8l-1.3-2.2c-.3-.4-.4-.4-.8-.2v-.2Zm.7,2.1.4-.2a.8.8,0,0,0,.3-1.3,1,1,0,0,0-1.4-.4l-.2.3v.3Z" transform="translate(0 0)" style="fill:#00240d"/><path d="M288.6,156.3v-.2c.4-.3.4-.4.1-.8l-1.5-2c-.3-.4-.4-.4-.8-.1V153l1.3-1v.2c-.4.3-.4.4-.1.8l1.5,2c.4.4.4.4.8.1v.2Z" transform="translate(0 0)" style="fill:#00240d"/><path d="M292.8,151.5l.4.9-.8.9a2,2,0,0,1-3,0,2.3,2.3,0,0,1,.3-3.3l.9-.6.8.7h-.1a1.2,1.2,0,0,0-1.6.1,1.8,1.8,0,0,0,.1,2.5,1.7,1.7,0,0,0,2.5.3,1.2,1.2,0,0,0,.3-1.5Z" transform="translate(0 0)" style="fill:#00240d"/><path d="M294,151.6h-.1c.3-.4.4-.5,0-.8l-1.8-1.7c-.4-.4-.5-.4-.9,0v-.2l1.1-1.2.2.2c-.4.3-.4.4,0,.8l1.8,1.7c.4.4.5.3.9,0h.1Z" transform="translate(0 0)" style="fill:#00240d"/><path d="M295.5,145.3l-.6-.2c-.2,0-.3,0-.6.4l-.2.3,2.3,1.9c.4.4.5.4.9-.1h.1l-1.1,1.4h-.1c.3-.5.3-.5-.1-.8l-2.4-2-.2.3c-.3.4-.4.6-.3.7a.9.9,0,0,0,.3.5v.2l-.9-.8h.1l.4-.2,1.5-1.9a.4.4,0,0,0,.1-.3h.1l.9.6Z" transform="translate(0 0)" style="fill:#00240d"/><path d="M271.7,85.3s2,1.8,2.1,2.5l-1.8-.3a1.5,1.5,0,0,0-.7-2Z" transform="translate(0 0)" style="fill:#00240d"/><path d="M274.8,85.8l.6-.3s1.5,1.2,1.3,2.2a1.3,1.3,0,0,1-1.1,0S275.5,86.1,274.8,85.8Z" transform="translate(0 0)" style="fill:#00240d"/><path d="M276.5,85.4h.6l1.2,1.9h-.7A11,11,0,0,0,276.5,85.4Z" transform="translate(0 0)" style="fill:#00240d"/><path d="M275.2,82.6c.2.4,1.6,1.3,1.2,1.6s-1.3-.5-1.6-.9-1-1-.9-1.3S275,82.3,275.2,82.6Z" transform="translate(0 0)" style="fill:#00240d"/></g></svg>